<?xml version="1.0" encoding="UTF-8" standalone="no"?>
<!-- Created with Inkscape (http://www.inkscape.org/) -->

<svg
   width="160.25815mm"
   height="144.74608mm"
   viewBox="0 0 160.25815 144.74608"
   version="1.1"
   id="svg5"
   inkscape:version="1.1 (c4e8f9e, 2021-05-24)"
   sodipodi:docname="Logo_Round_Color.svg"
   xmlns:inkscape="http://www.inkscape.org/namespaces/inkscape"
   xmlns:sodipodi="http://sodipodi.sourceforge.net/DTD/sodipodi-0.dtd"
   xmlns="http://www.w3.org/2000/svg"
   xmlns:svg="http://www.w3.org/2000/svg">
  <sodipodi:namedview
     id="namedview7"
     pagecolor="#ffffff"
     bordercolor="#666666"
     borderopacity="1.0"
     inkscape:pageshadow="2"
     inkscape:pageopacity="0.0"
     inkscape:pagecheckerboard="0"
     inkscape:document-units="mm"
     showgrid="false"
     fit-margin-top="0"
     fit-margin-left="0"
     fit-margin-right="0"
     fit-margin-bottom="0"
     inkscape:zoom="0.36805663"
     inkscape:cx="244.52759"
     inkscape:cy="354.56501"
     inkscape:window-width="1045"
     inkscape:window-height="855"
     inkscape:window-x="0"
     inkscape:window-y="23"
     inkscape:window-maximized="0"
     inkscape:current-layer="layer1" />
  <defs
     id="defs2" />
  <g
     inkscape:label="Layer 1"
     inkscape:groupmode="layer"
     id="layer1"
     transform="translate(-26.038251,-65.671282)">
    <g
       id="g4862"
       transform="matrix(0.22301459,0,0,0.22301459,117.59493,159.44499)">
      <path
         style="fill:#9beff4;stroke-width:0.264583;fill-opacity:1"
         d="m 75.716293,182.23369 c -15.55025,-1.94953 -32.687,-9.07759 -43.39471,-18.05012 -2.91608,-2.44353 -5.03669,-4.65137 -7.45998,-7.76689 -8.45489,-10.87012 -11.37293,-19.38311 -10.97759,-32.0257 0.37018,-11.8374 3.91382,-20.41549 11.73395,-28.40437 6.29587,-6.431703 12.81171,-11.284056 25.2275,-18.786872 13.96042,-8.436213 23.31479,-11.649101 36.5125,-12.540668 7.15504,-0.483367 14.776997,-0.611769 18.256247,-0.307578 11.36705,0.993828 21.23572,4.157636 30.79215,9.871684 4.81018,2.876127 8.14089,5.461926 11.80576,9.165458 6.1187,6.183206 9.47021,11.91379 12.73289,21.771296 3.49343,10.5547 4.47135,20.55569 2.89849,29.64151 -1.84674,10.66757 -8.9548,22.23314 -18.27721,29.73887 -11.2662,9.07074 -26.26998,14.78542 -45.905207,17.48446 -4.24079,0.58296 -19.87349,0.71932 -23.94479,0.20892 z m 54.371877,-28.52524 c 2.70258,-0.72016 4.13623,-1.93939 5.33362,-4.53599 1.01217,-2.19493 1.00394,-3.99507 -0.0276,-6.03384 -1.53884,-3.04147 -5.37869,-5.60793 -8.34874,-5.58009 -2.90624,0.0272 -4.78589,0.96141 -6.2628,3.11253 -1.35771,1.97749 -1.82694,3.8966 -1.43176,5.85557 0.71535,3.54618 3.23265,6.12688 6.95304,7.12819 1.7803,0.47916 2.16677,0.48464 3.78423,0.0536 z m 20.10833,-13.60797 c 3.33949,-0.973 5.4551,-2.04128 7.26765,-3.6699 4.43323,-3.98333 5.19404,-9.78821 1.94797,-14.86268 -1.84478,-2.88385 -5.01946,-5.49164 -8.95493,-7.35589 -3.2835,-1.55541 -5.48256,-2.09497 -6.93946,-1.70267 -2.34755,0.63211 -2.87055,2.55156 -1.77866,6.5278 1.30881,4.76615 1.54604,6.37937 1.24949,8.49693 -0.34181,2.44105 -1.0622,3.77775 -3.45125,6.40398 -2.94476,3.23712 1.45795,5.67027 2.64345,5.27791 l 3.34456,-1.10695 c 4.54091,-1.35558 2.74063,2.42663 4.67118,1.9915 z m -26.19846,-28.59135 c 1.12442,-0.65669 2.2356,-2.58723 2.42901,-4.22007 0.57004,-4.81315 -4.90316,-7.743037 -8.23685,-4.40931 -0.87927,0.87923 -1.73138,2.95632 -1.72548,4.20584 0.004,0.81952 1.15784,3.10803 1.92166,3.81098 1.49223,1.37327 3.86557,1.63235 5.61166,0.61256 z m -28.038427,-0.68532 c 0.50147,-0.20952 1.15819,-0.77507 1.45937,-1.25677 1.11775,-1.78769 -0.0246,-3.8712 -2.51304,-4.58309 -2.00623,-0.57396 -9.95926,-2.18128 -13.09423,-2.64633 -3.22974,-0.47914 -3.89893,-0.38484 -4.93377,0.69527 -1.08818,1.13585 -1.08066,2.78032 0.018,3.92708 0.91181,0.95173 1.47926,1.1245 6.0964,1.85626 1.89177,0.29983 5.16599,0.94448 7.27604,1.43259 4.58555,1.06071 4.53978,1.05611 5.69124,0.57499 z M 70.301063,94.29079 c 2.98945,-1.31109 3.76328,-4.653068 1.63791,-7.073715 -1.57814,-1.79742 -3.68906,-2.155904 -5.90672,-1.003115 -1.60383,0.833729 -2.29563,1.586098 -2.89039,3.143462 -0.43074,1.127839 -0.43286,1.28606 -0.0316,2.334313 0.73726,1.925743 3.31671,3.522371 5.19766,3.217254 0.50932,-0.08263 1.40623,-0.360812 1.9931,-0.618199 z m -168.945187,81.05373 c -5.748836,-1.02346 -8.514666,-1.82227 -12.785166,-3.69253 -11.46202,-5.01972 -19.7978,-14.32168 -22.04149,-24.59619 -0.65296,-2.99016 -0.77078,-7.79751 -0.26397,-10.77074 0.49604,-2.91018 1.8597,-7.03112 3.35256,-10.13135 2.9754,-6.1791 8.1408,-11.34192 14.77872,-14.77123 6.72407,-3.47385 12.85947,-5.32133 20.002055,-6.02295 3.593306,-0.35298 12.448328,-0.1869 16.007291,0.30019 3.38246,0.46295 7.689533,1.71059 10.127906,2.93378 2.824084,1.41666 6.597968,4.00455 7.675325,5.26323 2.023639,2.36424 4.577053,7.88781 5.363554,11.60251 1.171998,5.53537 1.086591,11.2037 -0.289772,19.23049 -0.813197,4.74253 -1.419437,6.69103 -3.219027,10.34622 -2.901659,5.89367 -6.641914,9.60361 -13.741664,13.63025 -7.882546,4.47058 -14.323616,6.51499 -21.129863,6.70668 -1.74625,0.0492 -3.472657,0.0364 -3.836459,-0.0284 z m 19.337735,-20.02843 c 1.145116,-0.77169 1.616339,-1.67899 1.453303,-2.79818 -0.183356,-1.2586 -0.838332,-2.1363 -1.936671,-2.59522 -1.242615,-0.51919 -2.434748,-0.27773 -3.351106,0.67876 -1.480053,1.54485 -1.028594,3.89911 0.933053,4.86548 1.208775,0.59547 1.842876,0.56253 2.901421,-0.15084 z m -32.889351,-1.40555 c 0.99304,-0.65066 1.49561,-2.12082 1.1357,-3.32211 -0.41823,-1.39588 -1.38446,-2.07742 -2.94524,-2.07742 -1.05457,0 -1.39977,0.13287 -2.05978,0.7929 -1.06465,1.06463 -1.27077,2.12167 -0.65815,3.37539 0.86519,1.7706 2.87155,2.31622 4.52747,1.23124 z m 22.197115,-14.02246 c 0.410951,-0.30422 0.923951,-1.0536 1.139931,-1.66529 0.364595,-1.03243 0.355097,-1.18245 -0.132292,-2.0927 -0.87974,-1.64303 -1.764453,-1.90571 -6.420485,-1.90616 -4.594459,0 -5.551619,0.24437 -6.400879,1.63729 -0.74366,1.21979 -0.68567,2.37707 0.17007,3.39408 0.38833,0.46149 0.93623,0.92421 1.21759,1.0283 0.28136,0.10409 2.574184,0.18211 5.095187,0.17344 4.221321,-0.0146 4.642697,-0.0596 5.330878,-0.56896 z m -96.654355,-4.81476 c -4.14205,-1.47264 -6.80286,-4.3385 -6.81844,-7.34391 -0.01,-1.87031 0.69368,-3.5198 1.96937,-4.6184 0.59145,-0.50933 1.44642,-1.26916 1.89994,-1.6885 0.45355,-0.41936 1.60814,-1.13315 2.56578,-1.58625 1.41605,-0.66995 2.06229,-0.82047 3.46096,-0.80621 3.01199,0.0308 5.0288,1.33358 6.31745,4.08096 1.79351,3.82375 0.068,10.01347 -3.27474,11.74705 -1.46273,0.75858 -4.31038,0.85875 -6.12032,0.21526 z m -46.43761,-12.48362 c -4.31508,-0.54809 -5.17665,-0.91607 -8.82541,-3.76923 -2.24047,-1.75194 -5.18765,-4.76128 -6.23536,-6.36685 -0.54884,-0.84111 -1.38759,-2.44846 -1.86389,-3.57188 -0.75264,-1.77525 -0.88038,-2.41197 -0.97594,-4.86447 -0.40155,-10.30642 6.24585,-19.735324 16.56973,-23.50307 6.23483,-2.275416 13.76394,-0.674529 20.93036,4.450398 4.54464,3.249983 6.96203,5.904547 8.71627,9.571408 0.85598,1.789218 0.95907,2.245386 1.0481,4.638251 0.12036,3.235063 -0.38685,6.166093 -1.55086,8.962203 -3.03591,7.29255 -9.35339,12.14996 -18.29283,14.06507 -2.33887,0.50104 -7.10232,0.69527 -9.52017,0.38817 z M -80.255582,60.901088 c -6.389185,-0.606108 -21.448158,-2.667662 -33.385758,-4.570439 -4.04805,-0.64524 -9.44367,-1.488573 -11.99028,-1.874071 -8.20029,-1.241345 -19.86402,-3.739938 -25.4,-5.441129 -3.87935,-1.192107 -12.31353,-4.529032 -14.95552,-5.917063 l -1.84553,-0.969565 4.23334,0.155284 c 2.32833,0.08541 8.51958,0.382058 13.75833,0.659262 23.33562,1.234678 45.96191,1.544082 61.251043,0.837538 39.536423,-1.82708 49.143391,-2.53865 86.386458,-6.398392 23.871872,-2.474013 24.790502,-2.58273 31.221842,-3.695091 3.33115,-0.576157 6.0952,-1.009015 6.14233,-0.961893 0.18613,0.186134 -9.60337,4.992582 -14.34542,7.043314 -2.7649,1.195679 -5.56287,2.415646 -6.21771,2.711027 -2.03245,0.916781 -13.981377,5.632953 -17.487556,6.902238 -6.676946,2.417154 -21.834263,6.623156 -28.682236,7.959064 -5.300292,1.033965 -18.927021,2.875835 -25.532291,3.451066 -5.047668,0.439605 -18.974277,0.50509 -23.151042,0.10885 z M -189.66079,-41.336901 c -7.50457,-1.58914 -11.0181,-5.68735 -15.07657,-17.58543 -0.62047,-1.81901 -1.33469,-3.72401 -1.58718,-4.23333 -0.49956,-1.00774 -2.1421,-6.39596 -2.66161,-8.73125 -0.17806,-0.80036 -0.43465,-1.66994 -0.57025,-1.93238 -0.33369,-0.64596 -1.7903,-1.50501 -2.554,-1.50622 -1.11315,-0.003 -2.35839,0.7874 -2.83832,1.79877 -0.40071,0.84441 -0.41777,1.15961 -0.13657,2.52102 0.17676,0.85577 0.28434,1.59026 0.23907,1.63219 -0.21087,0.19534 -6.27644,-0.7693 -10.10821,-1.60761 -2.34387,-0.51276 -5.21407,-1.10894 -6.37824,-1.32482 -1.16416,-0.2159 -2.38456,-0.45032 -2.71198,-0.52096 -0.59031,-0.12732 -0.59531,-0.16806 -0.59531,-4.84743 0,-11.04096 0.78125,-16.18105 7.123,-46.864639 0.28572,-1.38245 1.193,-5.96636 2.01617,-10.18646 4.66613,-23.92167 11.43446,-43.76351 19.74301,-57.87815 3.86186,-6.56059 10.60765,-16.14786 15.40479,-21.89373 2.84792,-3.41113 7.00717,-7.9375 7.29371,-7.9375 0.11634,0 0.27713,0.32743 0.3573,0.72761 0.2854,1.42427 1.70314,2.97194 3.48723,3.80681 1.5181,0.71041 2.13836,0.82169 6.4612,1.15922 2.63004,0.20535 6.92105,0.67509 9.53559,1.04386 8.81621,1.2435 23.97352,1.52544 29.78113,0.55396 7.0485,-1.17905 10.65829,-3.00899 12.30574,-6.23823 1.79517,-3.51883 2.85168,-15.20977 1.74329,-19.29059 -0.97541,-3.59127 -2.64237,-5.65649 -5.27016,-6.5293 -2.44649,-0.81259 -10.6843,-0.0466 -26.20602,2.43672 -3.18202,0.5091 -5.97692,0.88877 -6.21083,0.84372 -0.93414,-0.1799 8.1889,-5.52677 13.6965,-8.02729 12.42441,-5.64084 23.83096,-8.96069 40.86106,-11.89249 11.749058,-2.02265 19.066613,-2.62504 31.91896,-2.62761 12.084156,-0.002 18.277998,0.49263 29.633333,2.36844 25.230587,4.16792 48.98223,12.36415 67.07188,23.14521 5.75024,3.42702 13.47612,8.5921 17.17275,11.4807 8.7331,6.82417 18.78071,17.23082 26.29495,27.23459 7.35531,9.7922 11.98957,18.13053 16.71524,30.07551 2.65049,6.69956 6.49118,19.00806 8.91638,28.575 1.08823,4.29286 2.27647,8.87118 2.64054,10.17402 0.6414,2.29529 2.06785,8.2368 3.941307,16.4166 1.71009,7.46628 2.97974,16.79961 3.67128,26.987499 0.64535,9.50778 0.76044,13.09857 0.55811,17.41554 l -0.19177,4.09191 -0.96565,0.0273 c -5.108887,0.14457 -14.286517,-0.0582 -22.132307,-0.48905 -17.42935,-0.95713 -23.59504,-1.14914 -31.35313,-0.97639 -12.65277,0.2817 -22.64994,1.00946 -31.60553,2.30071 -2.90373,0.41867 -5.31945,0.72128 -5.36827,0.67246 -0.0488,-0.0488 0.0564,-0.90757 0.23379,-1.90833 0.54713,-3.08663 0.25421,-4.4046 -1.14544,-5.15366 -0.84264,-0.45098 -2.47253,-0.37944 -3.27072,0.14356 -0.98436,0.64498 -1.40298,1.85462 -1.86407,5.3866 -0.82484,6.31801 -1.92484,10.29229 -4.27215,15.435 -1.92016,4.20695 -4.889869,7.52469 -8.098551,9.04774 -3.341264,1.58597 -4.805574,1.8773 -9.431972,1.87659 -3.493585,0 -4.532128,-0.10261 -7.011459,-0.68903 -5.631762,-1.33205 -10.286153,-3.65112 -13.374687,-6.66406 -3.416856,-3.3332 -4.425421,-5.64753 -5.633826,-12.92765 -0.72607,-4.37428 -1.168347,-5.39501 -2.654379,-6.126 -0.86151,-0.42379 -1.160966,-0.45215 -2.028958,-0.19209 -0.575257,0.17237 -1.297622,0.66199 -1.660287,1.1254 -0.586766,0.74975 -0.798459,0.82937 -2.461577,0.92581 -3.460062,0.20063 -13.737696,0.90112 -16.900869,1.15189 -1.77419,0.14068 -18.350547,0.25752 -37.570838,0.26485 -31.09028,0.0119 -46.37029,0.22105 -49.84861,0.68249 -1.14464,0.15184 -1.26224,0.11305 -1.54609,-0.50996 -0.43201,-0.94813 -1.49606,-1.56819 -2.69113,-1.56819 -1.39179,0 -2.02073,0.51459 -3.29623,2.69701 -0.59997,1.02656 -1.79245,2.96926 -2.64994,4.31715 -0.85748,1.3479 -2.33849,3.70086 -3.29112,5.22883 -2.64531,4.24288 -4.65164,6.49023 -8.06519,9.03388 -5.17065,3.85302 -10.23326,5.17467 -15.52731,4.05363 z M 83.834103,-116.3776 c 3.89401,-1.45693 6.76638,-6.48327 7.76087,-13.58064 1.09775,-7.83431 -1.82679,-18.82907 -7.82548,-29.41976 -2.29446,-4.05088 -4.0989,-6.63258 -5.33953,-7.63956 -1.11331,-0.90363 -3.66461,-2.5006 -3.99494,-2.5006 -0.11824,0 -0.97967,-0.31258 -1.91426,-0.69461 -2.65713,-1.08614 -5.76527,-1.65351 -7.53658,-1.37575 -2.92655,0.45894 -5.45007,2.34426 -6.85527,5.12159 -1.82084,3.59883 -0.90543,7.07406 3.83095,14.54356 5.34763,8.43349 7.92485,14.79897 9.26613,22.88646 0.92896,5.60112 1.83753,7.98372 3.96357,10.39376 2.36873,2.68518 5.3998,3.47956 8.64454,2.26555 z m -27.55294,-58.45935 c 2.0057,-0.75043 3.07192,-1.7545 3.96735,-3.73607 1.96109,-4.3399 0.75824,-10.5257 -3.73422,-19.20363 -3.29235,-6.35969 -6.2701,-10.39743 -11.99708,-16.26772 -5.28937,-5.42169 -11.97864,-10.44299 -17.35196,-13.02522 -4.16695,-2.00249 -9.82464,-2.95938 -12.64674,-2.13897 -1.71635,0.49895 -3.8032,2.24588 -4.88871,4.09238 -0.62336,1.06039 -0.72046,1.51229 -0.71821,3.34281 0.003,1.77837 0.12676,2.38653 0.77938,3.80514 1.42706,3.10207 3.04173,4.81283 9.1403,9.68429 7.02477,5.61132 12.75932,11.82287 19.08704,20.6747 5.56863,7.78998 9.524,11.57865 13.37165,12.80809 2.02512,0.64709 3.18833,0.63873 4.9912,-0.0358 z m -164.582583,-1.27934 c 4.05861,-0.68466 7.53224,-1.66772 8.17931,-2.31478 1.170964,-1.17097 1.206815,-3.20542 0.0752,-4.26541 -1.15609,-1.0829 -1.83324,-1.1503 -4.66587,-0.46441 -4.01111,0.97123 -7.16241,1.27703 -11.82336,1.14731 -3.20984,-0.0893 -4.44119,-0.22439 -5.22028,-0.57262 -3.45445,-1.544 -5.94233,3.16958 -2.83919,5.37922 1.06587,0.75899 2.28489,1.09503 4.91712,1.35552 2.58159,0.25548 9.207,0.10128 11.37708,-0.26483 z m 68.484596,-13.03106 c 1.990381,-0.72318 4.16089,-2.68361 5.048515,-4.5599 2.29489,-4.85102 0.527499,-10.34755 -4.141285,-12.87927 -1.571572,-0.85222 -1.79713,-0.89935 -4.304321,-0.89935 -2.314496,0 -2.834587,0.0885 -4.153033,0.70649 -1.922674,0.90123 -3.764253,2.74281 -4.665477,4.66548 -0.610261,1.30188 -0.70649,1.8496 -0.70649,4.02074 0,2.16292 0.09726,2.72096 0.69723,4.0005 0.906092,1.93245 2.240174,3.38584 3.984942,4.34137 2.626598,1.43845 5.386388,1.64073 8.239919,0.60394 z m -113.906666,-0.47108 c 1.93529,-1.03714 3.26281,-2.44588 4.24619,-4.50598 0.5993,-1.2555 0.69448,-1.80016 0.69352,-3.96875 0,-2.21813 -0.0886,-2.69197 -0.7453,-4.03172 -0.94785,-1.93358 -2.67872,-3.66486 -4.6142,-4.61529 -1.36012,-0.66789 -1.79462,-0.74538 -4.16439,-0.74265 -2.23475,0.003 -2.83972,0.099 -3.89371,0.62027 -4.92165,2.43432 -6.95463,8.29073 -4.56999,13.16477 0.85969,1.75711 3.14034,3.86489 4.95983,4.58381 1.12972,0.44639 1.85377,0.53369 3.90075,0.47033 2.27404,-0.0704 2.67303,-0.16327 4.1873,-0.97479 z m 134.255955,-31.64417 c 1.505956,-0.51313 3.272367,-2.33146 4.224708,-4.34888 1.566519,-3.31846 2.799133,-9.87523 2.909385,-15.47647 0.0689,-3.49906 -0.23913,-4.69116 -1.616366,-6.2558 -1.353582,-1.53776 -3.172804,-2.49693 -6.174819,-3.25567 -4.432644,-1.1203 -7.544991,-1.30183 -18.299854,-1.06736 -10.428658,0.22737 -11.887279,0.23375 -28.925784,0.12655 -11.941996,-0.0751 -11.638042,-0.11099 -12.691587,1.49693 -0.607853,0.92768 -0.561922,1.97685 0.2617,5.97935 0.381873,1.8557 1.057725,5.57601 1.501881,8.26736 0.444182,2.69135 1.046162,5.53097 1.337733,6.31026 1.411314,3.7721 6.46049,6.39484 14.084776,7.31622 3.253132,0.39313 14.230588,0.77587 23.610597,0.82319 4.365625,0.022 9.306718,0.12286 10.980208,0.22407 5.493253,0.33225 7.506018,0.30027 8.797422,-0.13975 z m -306.782135,105.30717 c -3.37758,-0.81862 -6.22018,-3.19196 -7.89129,-6.58855 -1.25573,-2.55231 -1.64622,-4.42325 -1.65886,-7.94814 -0.0147,-4.08355 1.3852,-10.02292 3.01242,-12.78128 0.2839,-0.48125 0.51619,-1.02529 0.51619,-1.20899 0,-0.74829 3.94259,-5.49833 5.2179,-6.28652 2.7502,-1.69971 10.89505,-2.62049 15.15502,-1.71326 3.90955,0.83259 7.11521,3.07155 10.01874,6.99749 2.9501,3.98888 4.16152,7.70998 3.93771,12.09535 -0.22457,4.40002 -2.00309,7.93657 -5.44979,10.83678 -3.74309,3.1496 -8.6281,5.52587 -13.37275,6.50507 -2.85909,0.59007 -7.25455,0.63272 -9.48529,0.0921 z m -5.90237,-61.34323 c -0.44377,-0.1933 -1.12838,-0.73355 -1.52135,-1.20057 -0.61266,-0.72811 -0.71238,-1.08191 -0.6997,-2.48245 0.0178,-1.96559 0.58004,-3.45099 1.9709,-5.20689 1.48723,-1.87755 3.16049,-2.34047 4.81449,-1.33197 3.15904,1.92618 2.04731,8.62145 -1.69845,10.22871 -1.05072,0.45085 -1.81932,0.44902 -2.86589,-0.007 z m 501.1915,-52.8165 c -2.01544,-0.50844 -3.57163,-1.74272 -4.16052,-3.29987 -0.98528,-2.60535 0.37362,-6.20295 2.69362,-7.13123 1.13215,-0.453 3.01281,-0.54709 3.25043,-0.16262 0.0839,0.13573 0.80796,0.38285 1.60904,0.54916 3.04488,0.63211 6.34823,4.16642 5.82874,6.23624 -0.25307,1.0083 -2.00181,2.77578 -3.29467,3.32997 -1.36554,0.58533 -4.49979,0.8383 -5.92664,0.47835 z m -22.15025,-31.32313 c -5.91873,-1.18297 -9.57051,-3.06358 -12.96744,-6.67799 -2.83142,-3.0127 -4.29969,-6.41734 -4.80045,-11.13126 -0.23868,-2.24687 -0.21476,-3.13534 0.14113,-5.24186 0.59629,-3.52945 1.41701,-5.08167 4.13047,-7.8119 1.94479,-1.95683 2.62993,-2.44967 5.02962,-3.61794 4.98896,-2.42883 14.15444,-5.42718 19.18229,-6.27519 6.42625,-1.08387 10.6389,-1.04425 14.05837,0.13221 5.20713,1.79153 9.36853,6.0243 11.08139,11.2715 2.67438,8.19271 0.23362,18.35852 -5.45957,22.73933 -1.76861,1.36091 -6.41824,3.65696 -9.76615,4.82265 -4.42719,1.54149 -7.23773,1.97469 -13.35362,2.05826 -3.78489,0.0517 -6.10452,-0.0337 -7.27604,-0.26781 z"
         id="path1056"
         sodipodi:nodetypes="ssssssssssscsssssssssssssssssscssccssscsssssscssssssssscssssssssssssssssssssssssssssscssssscsssssssssscsssssssssssscssssssscscscsccssccsssssccsssssssssssscssssssssssscssssssscssccscssscsccccscsssssccscsssssssssssssssscssscssssscssssscssssssscsssssssssssssssccsssssssssssssssssssssssssssssssscsssssccsssssssscssssssssssscss" />
      <path
         style="fill:#f6a2a2;stroke-width:0.264583;fill-opacity:1"
         d="m 208.98027,143.14166 c -1.68513,-23.00674 -2.04403,-30.35311 -2.55561,-52.309821 -0.32961,-14.148435 -0.69821,-16.868722 -2.8413,-20.969579 -0.54097,-1.035155 -1.83851,-2.76098 -3.08338,-4.101041 -1.1821,-1.272567 -2.66808,-2.909067 -3.30216,-3.636672 -0.63404,-0.727604 -3.79613,-4.001823 -7.02683,-7.276041 -6.66562,-6.755395 -12.28881,-12.792763 -13.25933,-14.235959 -0.36155,-0.537687 -1.30908,-1.917489 -2.1056,-3.066283 -1.56914,-2.263061 -3.27073,-6.263852 -4.16037,-9.781911 -0.81391,-3.218603 -0.56737,-6.953805 0.72716,-11.015847 1.85587,-5.823506 2.26121,-7.284958 2.51312,-9.061027 0.2886,-2.034963 0.0204,-4.498763 -0.76441,-7.020137 -1.42801,-4.588143 -3.663,-6.448403 -12.46873,-10.378093 -1.67058,-0.74552 -3.08456,-1.40264 -3.14216,-1.46026 -0.0576,-0.0576 0.60012,-0.87403 1.46166,-1.81423 1.8746,-2.04578 4.03013,-6.02056 4.89577,-9.02771 0.88167,-3.06282 0.88649,-9.04994 0.01,-12.30313 -1.69735,-6.29925 -5.56485,-11.22428 -11.83235,-15.06781 -1.5371,-0.94263 -2.19321,-1.48767 -2.03896,-1.69383 0.1251,-0.16719 0.65172,-0.83976 1.17031,-1.49461 2.136,-2.69726 3.91294,-7.7634 3.52649,-10.05416 -0.38989,-2.31122 -1.34016,-5.58181 -2.11404,-7.27604 -1.15552,-2.52974 -5.15991,-7.76481 -7.99277,-10.44922 -2.58393,-2.44851 -7.04541,-6.07005 -11.06043,-8.97811 -5.11305,-3.70334 -10.99035,-6.60252 -18.26475,-9.00975 -2.32833,-0.77049 -4.2518,-1.41438 -4.27434,-1.43086 -0.0225,-0.0164 -0.41656,-2.649359 -0.87556,-5.850809 -0.45897,-3.20146 -1.06722,-6.95193 -1.35165,-8.33438 -0.81725,-3.97214 -4.26239,-18.35446 -5.9259,-24.73854 -0.8342,-3.20146 -2.10566,-8.07519 -2.82543,-10.83054 -1.652697,-6.32655 -6.150557,-20.25422 -8.165677,-25.28509 -5.69669,-14.22209 -11.03,-23.37201 -20.51127,-35.18958 -7.61934,-9.49684 -17.39733,-19.18687 -25.66908,-25.43822 -8.80168,-6.65182 -22.1761,-14.61565 -31.67253,-18.85948 -21.674585,-9.68608 -48.325615,-16.37101 -72.295224,-18.13396 -4.816607,-0.35426 -19.518498,-0.35196 -24.895916,0.004 -14.780683,0.97811 -31.893193,4.09816 -45.645603,8.32234 -12.12201,3.7234 -23.60213,9.09968 -32.3814,15.16464 -3.7339,2.57949 -7.13335,5.14781 -7.50583,5.67078 -0.19915,0.2796 -1.03259,0.93563 -1.85208,1.45786 -1.53977,0.98121 -2.05164,1.39062 -7.01212,5.60867 -4.18484,3.55846 -13.57678,13.02111 -16.94776,17.07535 -8.92066,10.72872 -17.11238,23.32208 -21.94351,33.73438 -3.0363,6.54402 -7.49958,18.81505 -9.71925,26.72149 -1.90635,6.79037 -3.87214,15.04214 -5.2634,22.09413 -0.74644,3.78354 -1.77174,8.90323 -2.27845,11.37709 -0.5067,2.47385 -1.47325,7.20259 -2.14788,10.50829 l -1.2266,6.01036 -1.20129,0.40933 c -0.66071,0.22511 -2.59544,0.64718 -4.29939,0.9379 -5.81136,0.99153 -11.57828,3.04382 -18.61494,6.62461 -11.83298,6.021489 -18.09295,12.251289 -20.85376,20.753259 -1.1763,3.62243 -1.63228,6.35907 -1.60911,9.65729 0.0546,7.7743 2.56971,14.93443 7.19512,20.48343 l 1.08457,1.30114 -1.63966,0.95867 c -6.48298,3.79036 -10.02398,7.66074 -11.3871,12.44634 -1.69962,5.96702 -0.93291,9.15591 3.40531,14.16341 1.2568,1.45071 2.46377,2.97844 2.68216,3.395 0.51258,0.97772 0.73362,3.16497 0.50487,4.99579 l -0.18051,1.44475 -2.69782,0.16243 c -3.00859,0.18113 -6.82204,1.10964 -8.97895,2.1862 -4.52113,2.25658 -8.17367,6.539256 -9.5719,11.223254 -1.48986,4.990941 -0.30882,12.945136 2.81804,18.97925 2.55177,4.924346 5.83609,8.849281 11.57635,13.834401 2.10038,1.824064 3.70074,3.434901 4.00629,4.032489 1.12965,2.209403 1.23364,7.723663 0.17113,9.074414 -0.28929,0.367771 -1.85281,1.665949 -3.47447,2.884805 -1.62166,1.218883 -4.3627,3.505756 -6.0912,5.081958 -1.72849,1.576202 -3.93115,3.528748 -4.89479,4.339008 -0.96364,0.810234 -3.83566,3.661648 -6.38228,6.336453 -2.54661,2.674779 -6.05896,6.361033 -7.80521,8.191659 -5.64248,5.915078 -6.08907,6.788441 -7.78252,15.219521 -0.87151,4.338982 -1.2969,7.180051 -1.72327,11.509379 -0.22213,2.25557 -0.71366,7.01807 -1.09228,10.58333 -0.37862,3.56526 -0.82785,8.90879 -0.99829,11.87453 l -0.30989,5.3922 -3.43958,-2.99563 c -4.42509,-3.85395 -17.67909,-17.10558 -21.51521,-21.5114 -20.03617,-23.01155 -34.16608,-47.525434 -43.33259,-75.177409 -6.43743,-19.419332 -10.03467,-38.839532 -11.23926,-60.676632 -0.35871,-6.50269 -0.18884,-26.97318 0.27043,-32.58899 1.52168,-18.60672 3.9539,-34.29045 8.9038,-57.414589 13.85961,-64.74653 35.41598,-119.06236 64.73596,-163.11562 35.44343,-53.25374 81.74615,-90.76558 138.12786,-111.90337 32.20193,-12.07266 67.64102,-18.62414 105.084535,-19.42656 18.164783,-0.38928 34.68198,0.33703 56.488541,2.48396 132.818684,13.07645 228.293294,60.80344 281.829904,140.88451 29.1673,43.629 45.81557,95.67945 50.60672,158.22084 0.93157,12.16035 1.07,16.744969 1.07032,35.454159 0,21.92042 -0.43484,31.0877 -2.26118,47.625 -6.9637,63.05635 -28.03597,115.333677 -62.91482,156.082901 -7.87792,9.20382 -21.11801,22.39086 -27.04415,26.93577 -0.36592,0.28064 -0.48776,-0.74575 -1.13115,-9.52968 z m -527.7833,-252.59446 c 5.8032,-0.66717 12.54956,-3.23278 16.9589,-6.4494 5.05928,-3.69075 7.6706,-7.13901 9.24548,-12.20867 2.57764,-8.29762 -0.42973,-17.91605 -7.82614,-25.03024 -4.42577,-4.25691 -8.86547,-5.88682 -15.97142,-5.86351 -4.56129,0.0148 -6.63287,0.32303 -10.21773,1.5195 -3.24493,1.08304 -4.91867,2.0778 -6.31873,3.75549 -5.31467,6.3686 -7.0438,9.94781 -8.58764,17.77601 -1.13473,5.75376 -0.32302,12.37215 2.04895,16.70629 4.07504,7.44609 11.30282,10.87126 20.66833,9.79453 z m -8.93238,-61.76684 c 4.57451,-1.38838 8.17004,-6.74169 8.16106,-12.15087 -0.0101,-6.1 -3.63827,-10.34402 -9.14503,-10.69743 -1.8037,-0.11575 -2.01881,-0.0655 -4.19973,0.98031 -4.06333,1.94854 -6.22658,4.66712 -7.33221,9.21449 -0.54138,2.22666 -0.56556,2.61614 -0.26959,4.34209 0.43411,2.53156 1.07959,3.90369 2.60208,5.53135 2.57132,2.74894 6.63268,3.85768 10.18342,2.78006 z m 505.71316,-44.33602 c 0.0899,-0.14552 0.0374,-0.26458 -0.11668,-0.26458 -0.1541,0 -0.2802,0.11906 -0.2802,0.26458 0,0.14552 0.0525,0.26458 0.11668,0.26458 0.0642,0 0.19027,-0.11906 0.2802,-0.26458 z m -2.89986,-8.61143 c 0.86733,-0.22514 2.20572,-0.6965 2.97426,-1.04748 1.87971,-0.85842 4.4178,-3.32705 5.43893,-5.29005 0.74425,-1.43072 0.82632,-1.82306 0.83124,-3.97271 0.005,-2.15789 -0.0759,-2.5505 -0.84756,-4.11946 -0.95756,-1.94688 -3.12296,-4.3003 -5.26587,-5.72312 -1.50117,-0.99673 -3.94785,-1.9764 -6.66882,-2.67028 -1.54671,-0.39442 -1.83703,-0.39372 -3.78508,0.009 -1.16044,0.23995 -2.64642,0.696 -3.30216,1.01344 -3.24548,1.57112 -6.18654,6.52641 -6.18654,10.42356 0,1.70735 0.76732,4.49641 1.65267,6.00713 0.85558,1.45996 2.93555,3.42514 4.46132,4.21514 2.92463,1.51428 7.43635,2.0013 10.69761,1.15474 z m -16.7735,-30.8255 c 8.32578,-0.84656 17.05218,-3.94459 22.55832,-8.00861 3.53886,-2.612 6.76725,-7.76424 8.23603,-13.14404 1.88394,-6.90037 0.71271,-16.04699 -2.76122,-21.56354 -2.50756,-3.98198 -5.71492,-6.92546 -9.68269,-8.88606 -4.11469,-2.0332 -6.0158,-2.44483 -11.37708,-2.46338 -3.58632,-0.0124 -5.18935,0.10814 -7.90959,0.59484 -8.74929,1.56538 -20.94164,5.9559 -25.42632,9.15611 -3.24848,2.31806 -6.5631,6.45189 -7.75232,9.66828 -2.57363,6.96073 -1.34009,16.74636 2.89314,22.95105 3.39286,4.97295 9.32259,9.01188 15.60086,10.62622 5.09289,1.30955 9.9721,1.64349 15.62087,1.06913 z"
         id="path1054" />
      <path
         style="fill:#56bbc1;stroke-width:0.264583;fill-opacity:1"
         d="m -23.502457,223.09922 c -13.353627,-0.26284 -26.351574,-1.02129 -42.994792,-2.50883 -104.300681,-9.32217 -187.743141,-36.66358 -245.930211,-80.58344 -2.83766,-2.14188 -5.5105,-4.1842 -5.93965,-4.53847 l -0.78027,-0.64416 0.31756,-7.37801 c 0.17466,-4.05791 0.55706,-9.6402 0.84977,-12.4051 0.29271,-2.76489 0.82948,-7.88458 1.19281,-11.37708 1.0128,-9.735475 2.04205,-16.147917 2.86871,-17.872762 0.8751,-1.82589 2.9432,-4.387189 5.92322,-7.335864 1.28294,-1.269418 4.28183,-4.371367 6.66421,-6.893216 2.38237,-2.521876 5.29538,-5.410253 6.47335,-6.418686 1.17796,-1.008407 3.3919,-2.970424 4.91987,-4.360069 1.52797,-1.389618 4.10822,-3.536579 5.73389,-4.771019 4.47709,-3.399658 5.55406,-4.793113 6.18565,-8.003435 0.4132,-2.100262 0.18429,-7.027227 -0.4198,-9.035573 -0.96579,-3.210851 -1.80635,-4.320408 -6.22455,-8.216609 -4.81328,-4.244605 -6.30929,-5.847927 -8.50365,-9.1136 -2.02289,-3.010482 -3.01073,-5.160354 -3.82956,-8.334375 -0.5544,-2.148972 -0.63642,-2.994157 -0.56552,-5.827157 0.0785,-3.136159 0.12994,-3.409076 0.96099,-5.096457 2.19305,-4.452831 6.44241,-6.797729 13.0718,-7.213309 1.49538,-0.0937 3.15995,-0.28115 3.69904,-0.41643 1.25431,-0.31477 2.47298,-1.34334 3.13941,-2.64961 0.78504,-1.53882 1.30623,-5.51204 1.03744,-7.90885 -0.4025,-3.58905 -1.32311,-5.34773 -4.99033,-9.53323 -2.15944,-2.46462 -2.5213,-3.32277 -2.33633,-5.54069 0.39767,-4.76848 2.83954,-7.71017 9.74045,-11.73411 2.90285,-1.69267 4.30586,-3.08597 4.74328,-4.71043 0.44019,-1.63473 0.0278,-2.66444 -1.99686,-4.98639 -4.77778,-5.47921 -6.63806,-10.05819 -6.93318,-17.06563 -0.11674,-2.77201 -0.0463,-3.56036 0.55516,-6.21117 0.76022,-3.35066 1.93898,-6.09055 3.57031,-8.29879 3.92456,-5.31249 11.49818,-10.31449 21.99977,-14.52981 4.01275,-1.610699 5.72225,-2.119889 9.04064,-2.692919 1.26611,-0.21866 2.60556,-0.47371 2.97657,-0.56682 0.40665,-0.10208 0.67455,-0.0574 0.67455,0.11239 0,0.15494 -0.28954,2.102619 -0.64342,4.328159 -1.11899,7.03731 -1.28499,8.9013 -1.44716,16.25021 l -0.15838,7.17666 -2.03094,-0.79364 c -1.52259,-0.59497 -2.26092,-0.75049 -2.94972,-0.62127 -1.28004,0.24014 -2.2293,1.06714 -2.58407,2.25126 -0.48773,1.6279 0.19169,2.72516 2.30598,3.72412 2.24568,1.06103 7.27928,2.38516 9.06701,2.38516 1.28611,0 5.37181,0.7315 11.66987,2.08936 2.69213,0.58045 6.44205,1.23294 8.3331,1.45003 3.02117,0.34679 3.50361,0.47059 3.9764,1.02023 0.53319,0.61987 1.83314,3.69816 3.71697,8.80184 2.62319,7.10668 5.66171,11.63003 9.79241,14.57764 2.23502,1.59489 4.45451,2.55583 7.9155,3.4271 8.79964,2.21525 17.40828,-0.67887 25.14727,-8.45418 3.19005,-3.205 4.73702,-5.34133 6.98462,-9.64554 1.40711,-2.69465 1.53263,-2.84652 2.9254,-3.54034 3.4413,-1.71426 6.65795,-1.83409 51.85833,-1.93183 31.317644,-0.0677 39.093642,-0.1551 42.994791,-0.4831 6.635221,-0.55785 15.975039,-1.08167 16.150881,-0.9058 0.08062,0.0806 0.429948,1.38104 0.776261,2.88986 0.866405,3.77438 1.497621,5.46176 2.973652,7.94903 1.485213,2.50275 4.64746,5.78771 7.187909,7.46686 4.127395,2.72804 8.441161,4.42788 14.18381,5.58916 1.890395,0.38227 3.468608,0.72658 3.507185,0.76513 0.03855,0.0386 -0.79375,0.21775 -1.849597,0.39819 -5.328126,0.91059 -10.686071,1.98285 -13.296767,2.66103 -1.60073,0.41581 -4.220105,1.01311 -5.820834,1.3273 -1.600729,0.31422 -3.841988,0.86083 -4.980569,1.21468 -1.294633,0.40235 -3.188203,0.72422 -5.054468,0.85915 -2.316215,0.16746 -3.244718,0.35275 -4.147555,0.82762 l -1.163241,0.61185 -10.054167,-0.17473 c -23.86023,-0.41468 -41.927701,-0.92125 -57.679161,-1.61724 -14.75264,-0.65188 -18.60516,-0.91104 -22.32785,-1.50209 -3.37299,-0.53552 -3.58272,-0.54073 -4.38422,-0.10909 -1.57978,0.85077 -2.13469,2.57657 -1.3293,4.13404 1.09128,2.11026 4.7991,2.63614 25.0231,3.54898 21.81464,0.98462 61.099492,1.99819 77.366181,1.99607 14.602989,-0.003 31.856839,-1.11596 61.383332,-3.96346 9.02229,-0.8701 22.11917,-2.12267 29.10417,-2.78346 27.33593,-2.58612 36.95591,-3.96251 51.92691,-7.42956 3.38471,-0.78383 9.695017,-2.149 14.022917,-3.03371 4.32789,-0.88471 7.86342,-2.60256 8.18571,-2.81098 0.80756,-0.52221 -0.6458,-0.95099 -0.59675,-2.23898 l 1.49935,-0.74276 2.74939,-0.32998 c 2.90587,-0.34876 6.74021,-0.6704 8.61806,-0.12448 4.5036,1.30923 6.47843,5.42618 4.34724,9.06277 -1.2532,2.13842 -4.39796,4.38198 -8.28784,5.91275 -1.51167,0.59489 -4.40801,1.26243 -8.64621,1.99281 -3.54669,0.61119 -9.33336,2.18769 -15.05485,4.1015 -2.58617,0.86505 -5.718517,1.76329 -6.960727,1.99607 -1.24222,0.23278 -3.22625,0.77671 -4.40899,1.20874 -3.38604,1.23688 -8.22876,2.61277 -10.71798,3.04517 -2.36287,0.41045 -6.14172,1.35991 -8.89495,2.23489 -2.09881,0.66701 -9.11556,2.00236 -12.43542,2.36659 -5.3368,0.58549 -7.0938,0.87077 -18.1079,2.94002 -10.50276,1.97321 -15.62483,2.73225 -23.03481,3.41347 -1.67349,0.15386 -4.1738,0.45127 -5.55625,0.66093 -5.59665,0.8487 -8.41224,1.19295 -9.757195,1.19295 -1.686957,0 -7.305384,0.66448 -10.086552,1.1929 -1.091406,0.20736 -3.055937,0.43924 -4.365625,0.51525 -3.427624,0.19897 -9.248881,0.822566 -20.108333,2.154109 -7.325254,0.898181 -10.423419,1.167553 -13.415142,1.166362 -4.144434,-0.0026 -4.96189,0.178859 -5.518203,1.218327 -0.294587,0.550439 -0.529405,0.632354 -1.815015,0.633148 -5.238406,0.0034 -37.66402,1.474338 -38.915182,1.765432 -1.737333,0.404204 -2.731558,2.4393 -2.021707,4.138242 0.797692,1.909128 1.646343,2.026709 10.885249,1.508205 2.473854,-0.138854 9.43901,-0.437145 15.478125,-0.662914 6.039115,-0.225769 18.243021,-0.764328 27.119792,-1.19679 8.87677,-0.432461 18.699427,-0.91096 21.828125,-1.06336 C 7.991353,5.145283 25.588603,4.118541 36.293403,3.241447 73.078563,0.227473 110.43121,-7.063071 123.70618,-13.819891 c 3.42723,-1.74443 4.21341,-2.47759 4.24519,-3.95888 0.0185,-0.86342 0.10684,-0.96576 1.07849,-1.24971 0.58208,-0.1701 2.24896,-0.31588 3.70417,-0.32395 3.01511,-0.0167 4.02016,0.35882 6.10629,2.28176 1.73905,1.60301 2.61443,3.59384 2.59263,5.89622 -0.0434,4.5729 -2.18702,7.14623 -9.75726,11.712915 -3.37179,2.033984 -7.79605,3.787669 -12.17083,4.824227 -1.89177,0.448231 -4.69789,1.17012 -6.23578,1.604169 -3.30475,0.932762 -10.7733,2.325581 -14.137137,2.636467 -4.62163,0.427117 -7.18838,0.794147 -11.11326,1.589087 -2.18165,0.441855 -5.3957,1.044575 -7.14232,1.339348 -1.74662,0.294798 -4.54576,0.880771 -6.22033,1.302173 -1.67458,0.421428 -4.87498,0.957659 -7.112,1.191657 -2.23703,0.233997 -5.98662,0.771049 -8.33242,1.193429 -2.34579,0.422381 -6.42202,1.130274 -9.0583,1.573107 -2.63626,0.442807 -6.27494,1.159246 -8.08598,1.592051 -4.21045,1.006237 -7.57246,1.535218 -11.06559,1.741064 -5.79819,0.341683 -13.44182,1.491536 -18.38153,2.765213 -1.64868,0.42508 -4.11515,0.952712 -5.48101,1.172502 -1.36588,0.219789 -4.034601,0.758084 -5.930499,1.196181 -4.266354,0.985864 -12.860682,2.302536 -16.3136,2.499254 -1.420495,0.08094 -4.813776,0.570151 -7.540625,1.087146 -2.726875,0.516996 -6.545157,1.23997 -8.485082,1.606656 -1.939925,0.36666 -4.976018,1.085321 -6.746875,1.596999 -8.332496,2.407708 -8.514953,2.427658 -33.514532,3.663526 -33.2803,1.645233 -45.6266,1.645656 -78.31667,0.0026 -7.20328,-0.362003 -15.53765,-0.778219 -18.52083,-0.924877 -9.98458,-0.490908 -28.98275,-2.008346 -36.6448,-2.926927 -2.47385,-0.296598 -6.52197,-0.699426 -8.99583,-0.895218 -3.99579,-0.316203 -4.5952,-0.310303 -5.36948,0.05297 -1.03849,0.487257 -1.64198,1.540007 -1.64198,2.864406 0,2.079651 2.31027,3.293983 6.26677,3.293983 0.95853,0 4.27839,0.30271 7.37745,0.672703 3.09909,0.369967 10.34928,1.07225 16.11157,1.560565 l 10.47686,0.887889 4.02691,2.640991 c 5.64084,3.699484 7.70038,4.806633 13.07801,7.030297 8.11713,3.356504 11.9657,4.530619 22.5666,6.884617 6.3155,1.402398 10.76325,2.207498 19.1823,3.47218 3.34697,0.502788 8.64526,1.329505 11.77395,1.837161 6.29264,1.02108 18.707182,2.730368 26.061461,3.588306 6.238664,0.727789 16.641631,0.974037 23.151042,0.548031 8.927571,-0.584279 25.714722,-2.805589 32.279167,-4.271248 6.693693,-1.494525 20.520501,-5.307542 25.416113,-7.008998 3.444822,-1.197239 10.3645,-3.841353 15.06514,-5.756592 15.89804,-6.477582 25.89797,-11.463708 37.04166,-18.46961 0.80037,-0.503185 1.77517,-1.052671 2.16623,-1.221105 0.85042,-0.366263 5.37226,-0.981234 19.00044,-2.584 30.421447,-3.577802 33.823567,-4.099587 45.590587,-6.992171 4.1021,-1.00838 8.76806,-2.082191 10.36878,-2.386277 3.88874,-0.73869 4.52327,-0.97065 5.18071,-1.89394 0.41719,-0.585893 0.53575,-1.082649 0.46643,-1.954239 -0.0914,-1.149244 -0.0752,-1.175438 0.97528,-1.576599 0.58751,-0.224393 1.18814,-0.407961 1.33474,-0.407961 0.14664,0 1.2142,-0.599652 2.37242,-1.332574 2.65599,-1.680713 4.40814,-2.212155 6.74256,-2.045124 3.82923,0.273977 6.79167,3.045804 8.27577,7.743323 0.22987,0.727604 0.73199,2.93026 1.11577,4.894791 1.47638,7.556871 2.88965,12.052856 5.11125,16.260049 1.54641,2.928567 3.07721,5.086323 7.08774,9.990507 1.7,2.078805 3.4935,4.405657 3.98555,5.170779 0.49207,0.765149 2.36193,2.908274 4.15525,4.7625 4.41161,4.56147 8.53692,9.767649 9.63547,12.160038 0.48204,1.049788 1.13273,3.073665 1.44597,4.49752 0.51734,2.351643 0.56444,3.267551 0.51401,9.997149 -0.0306,4.074583 -0.23424,11.03974 -0.45265,15.478125 -0.46128,9.37366 -0.5392,34.41801 -0.12224,39.29062 0.30062,3.51309 1.38803,12.43772 1.96652,16.13959 0.20465,1.30969 0.43452,5.15384 0.5108,8.54255 l 0.1387,6.16132 -2.70336,1.75115 c -31.0774,20.1309 -68.61717,34.81175 -109.727307,42.91152 -30.88862,6.08587 -62.28794,8.64129 -97.63125,7.94562 z m 122.36979,-34.74236 c 17.146557,-2.04915 32.167427,-6.89581 43.692817,-14.09803 7.8832,-4.92623 13.96513,-10.76942 18.95104,-18.2072 9.26809,-13.82572 11.49848,-28.53592 7.07396,-46.65509 -2.56906,-10.520653 -7.5975,-18.462822 -13.13711,-25.328865 -7.32269,-9.076029 -19.56637,-18.685287 -32.23904,-22.559342 -9.51151,-2.907665 -14.70118,-3.566478 -26.855207,-3.40913 -10.85308,0.14052 -14.83662,0.525171 -21.43125,2.069439 -11.35877,2.659856 -20.76556,7.164228 -36.24792,17.35701 -13.86313,9.126749 -22.98927,18.519219 -26.97347,27.760668 -5.22973,12.13046 -5.57176,27.04938 -0.90205,39.34446 2.64697,6.96931 8.08453,15.09925 14.09862,21.07949 5.19213,5.1629 11.19489,9.31535 18.93628,13.09926 11.2758,5.51151 22.7127,8.85491 33.86667,9.90039 3.6228,0.33959 17.27665,0.11184 21.16666,-0.35306 z m -188.558989,-7.17569 c 7.561554,-1.22631 15.547076,-4.57306 23.589748,-9.88644 2.621386,-1.73183 6.991773,-5.98327 8.85436,-8.61338 1.433513,-2.02425 3.485277,-6.0021 4.536837,-8.79586 0.899266,-2.38911 2.055442,-7.37272 2.658666,-11.4599 0.676116,-4.58108 0.67691,-13.17342 0.0026,-16.52685 -0.969599,-4.81434 -3.067481,-10.22665 -5.336627,-13.76794 -2.209509,-3.44829 -5.824775,-6.28235 -11.903789,-9.33165 -4.844521,-2.43001 -8.539321,-3.222012 -17.684856,-3.790707 -7.812167,-0.485801 -14.286918,0.135255 -21.155373,2.029167 -6.288,1.73387 -11.81155,4.18235 -16.57043,7.34536 -3.3456,2.22367 -8.54408,7.28189 -10.42929,10.14789 -2.81114,4.27371 -5.17067,9.93285 -6.43255,15.42806 -1.67076,7.27583 -0.46855,15.8174 3.2416,23.03074 4.38726,8.52982 11.0609,14.78269 20.87673,19.56048 4.92678,2.39808 9.79805,3.95158 15.21354,4.85177 1.711461,0.28448 8.27199,0.14709 10.539972,-0.22074 z M -179.3844,141.06878 c 6.30581,-2.08354 10.37452,-10.53568 8.63142,-17.9305 -0.54279,-2.30266 -2.08351,-5.1382 -3.63484,-6.68954 -3.03869,-3.03868 -8.54832,-4.44637 -12.64325,-3.23032 -2.46258,0.73131 -5.5812,2.46388 -7.03524,3.90845 -0.74954,0.74465 -1.73236,1.63134 -2.18406,1.97041 -0.45167,0.33903 -1.14261,1.16483 -1.53538,1.83504 -0.94467,1.61195 -1.92998,5.07669 -1.92606,6.77273 0.006,2.70745 1.33572,5.95566 3.44681,8.42131 2.03007,2.37107 6.64334,4.87088 10.14587,5.49778 1.8842,0.33724 4.74803,0.1011 6.73473,-0.55536 z m -41.552,-13.17019 c 5.22195,-1.30225 7.92017,-2.51807 11.8477,-5.33853 5.76186,-4.13776 9.71045,-10.39439 11.25736,-17.8376 0.50128,-2.41196 0.4314,-7.595284 -0.12988,-9.632999 -1.5349,-5.572601 -6.02078,-11.141578 -12.53006,-15.555463 -6.75037,-4.577344 -12.29529,-6.355133 -18.98931,-6.088274 -3.92983,0.15666 -6.14017,0.690139 -9.62791,2.32373 -9.80413,4.592055 -16.29537,13.247925 -17.92805,23.906506 -0.90731,5.92317 0.57028,11.77306 4.28198,16.95275 2.32292,3.24163 8.75966,8.93324 11.63232,10.28573 3.10269,1.46082 6.71903,2.01044 12.43541,1.89003 3.94108,-0.083 4.90058,-0.19519 7.75044,-0.90588 z m -18.73064,-92.589722 c 0.3638,-0.265959 0.81743,-0.965676 1.00806,-1.554956 0.29333,-0.906754 0.28656,-1.215126 -0.0441,-2.006362 -0.21486,-0.514245 -0.66848,-1.114928 -1.00806,-1.334876 -0.33958,-0.219948 -2.58194,-0.940065 -4.98304,-1.600227 -8.72942,-2.400141 -15.48695,-4.95755 -23.17042,-8.768953 -3.49664,-1.734529 -5.88439,-2.765822 -6.4037,-2.765822 -1.3003,0 -2.12419,0.519907 -2.69613,1.701377 -0.62131,1.283467 -0.4023,2.60096 0.586,3.525255 0.78453,0.733716 9.30413,4.982634 13.16342,6.564921 7.37222,3.022548 20.51339,7.095755 22.09271,6.847788 0.43656,-0.06853 1.0914,-0.342213 1.45521,-0.608145 z M -192.72287,7.76188 c 1.43333,-1.433327 0.97192,-3.756687 -0.95207,-4.794197 -0.24323,-0.131181 -3.27933,-0.596847 -6.74688,-1.034865 -9.38202,-1.185069 -12.61068,-1.800199 -32.49835,-6.191589 -9.61917,-2.12403 -17.01057,-4.03419 -24.55547,-6.3459 -3.58958,-1.09982 -5.08921,-1.20436 -6.08136,-0.42395 -0.96031,0.75539 -1.36886,2.12757 -0.98224,3.29904 0.39399,1.1938 1.31655,1.89905 3.15191,2.40946 0.81381,0.22629 2.55122,0.75242 3.86091,1.16911 5.85078,1.861555 14.83003,4.099322 29.10417,7.253208 12.11948,2.677821 16.14977,3.459268 22.58589,4.379251 11.12036,1.589564 11.79002,1.603904 13.11349,0.280432 z m 33.75375,-1.791071 c 0.57184,-0.288448 1.1195,-0.863414 1.43187,-1.503309 0.45902,-0.940276 0.47127,-1.134004 0.13229,-2.092696 -0.69982,-1.979295 -1.20563,-2.150586 -6.64652,-2.250863 -5.31315,-0.09792 -6.643,0.162587 -7.49898,1.46894 -0.60357,0.9212 -0.61589,2.458032 -0.0269,3.357007 0.81042,1.236874 1.69468,1.423353 6.90946,1.45714 4.07628,0.02646 4.90781,-0.03725 5.69873,-0.436219 z m -16.57551,-27.8071 c 2.05663,-1.84639 1.28066,-4.66865 -1.49966,-5.45444 -0.75444,-0.2132 -5.30077,-0.99803 -10.10296,-1.74403 -14.73145,-2.28846 -23.59425,-4.28992 -38.23229,-8.63383 -3.71078,-1.10119 -9.18766,-2.68385 -12.17084,-3.517 -2.98317,-0.83314 -6.73952,-1.90746 -8.34744,-2.38733 -2.90378,-0.86664 -2.93015,-0.86937 -3.91426,-0.40238 -1.72154,0.81693 -2.32099,3.10285 -1.21938,4.64995 0.5954,0.83616 1.54281,1.18432 8.58629,3.15552 2.18281,0.6109 7.42156,2.12405 11.64167,3.36259 18.72117,5.49439 28.13627,7.67485 43.14687,9.99244 4.23101,0.65326 8.16007,1.30096 8.73125,1.43931 1.29398,0.31345 2.73749,0.11671 3.38075,-0.4608 z m 174.309797,-16.65287 c 3.106659,-1.55406 4.969726,-3.10463 7.270276,-6.05084 2.21856,-2.8412 4.21238,-6.85403 5.83139,-11.73649 0.69969,-2.11006 1.29945,-3.88284 1.33278,-3.93952 0.21789,-0.37031 12.41957,-2.02999 18.59585,-2.52941 16.86957,-1.36412 26.84719,-1.36052 50.8,0.0185 13.65991,0.78637 22.804007,0.56221 26.193747,-0.64212 3.87363,-1.37626 8.37128,-4.14385 9.13532,-5.62134 0.50342,-0.97348 -0.76266,-2.80231 -1.27321,-3.53127 -0.38719,-0.55282 -0.6098,-1.00181 0.29145,-1.17088 1.9101,-0.35835 5.72687,0.84775 7.09413,1.69297 2.71053,1.67579 3.644,5.54392 2.09963,8.70048 -0.78706,1.60866 -2.97405,3.73583 -4.74199,4.61229 -3.34926,1.66042 -6.0256,2.74209 -7.31362,2.95593 -0.80036,0.13284 -2.94349,0.70789 -4.7625,1.27783 -6.30904,1.97678 -9.528247,2.85303 -13.096867,3.56486 -7.24257,1.44463 -9.48897,1.84428 -11.37709,2.02406 -3.09451,0.29462 -13.23517,1.80737 -15.08125,2.24976 -2.31656,0.55515 -6.55764,0.9212 -10.67752,0.92162 -2.13516,2.1e-4 -4.52874,0.16923 -5.85893,0.4137 -1.23693,0.22736 -3.97537,0.51943 -6.08542,0.64905 -2.11005,0.12962 -6.63443,0.66866 -10.05417,1.19785 -3.41974,0.52919 -7.88458,1.07857 -9.92187,1.22084 -3.7778,0.26379 -7.11182,0.7284 -10.18646,1.41946 -0.94589,0.2126 -3.14854,0.52152 -4.89479,0.68649 -1.74625,0.16497 -4.90141,0.69678 -7.01146,1.18184 -2.110053,0.48504 -4.669896,1.00666 -5.688542,1.15922 -1.018646,0.15253 -2.14974,0.33954 -2.513542,0.41561 -0.363802,0.076 0.488818,-0.43715 1.894708,-1.14044 z M 14.866173,-221.69161 c -0.003,-0.24607 0.11502,-0.52099 0.26054,-0.61092 0.33485,-0.20696 0.33485,0.1433 0,0.66145 -0.22104,0.34203 -0.25705,0.33504 -0.26054,-0.0505 z"
         id="path1052"
         sodipodi:nodetypes="cssscsssssssssssssssssssssssscssssssssscssssssssssssscscccscsccccssccsssssscscsssccscssssscssccccsccccscscssscsssssscsscssccssccscsccsccsccssssssccscsscsssscsccscsscsssscsssssscsssscsscccsssssscssssssccsssscccsssssssscccsssssscsscssscsssssssssssscsssssssssscssssscssssscscscssssssssssssssscsscccsssscsscsccsscsscsscccccsssss" />
      <path
         style="fill:#fef9c0;fill-opacity:1;stroke-width:0.264583"
         d="m 186.484,167.64197 c -0.0945,-1.54501 -0.17225,-4.36817 -0.17272,-6.2737 0,-1.9055 -0.17534,-4.47659 -0.38862,-5.71351 -0.52491,-3.0443 -1.64547,-12.10707 -1.97922,-16.0073 -0.41696,-4.87262 -0.33904,-29.91696 0.12224,-39.29062 0.21841,-4.438386 0.42209,-11.403543 0.45265,-15.478126 0.0504,-6.729598 0.003,-7.645506 -0.51401,-9.997149 -0.31324,-1.423855 -0.96393,-3.447732 -1.44597,-4.49752 -1.09855,-2.392389 -5.22386,-7.598568 -9.63547,-12.160038 -1.79332,-1.854227 -3.66318,-3.997352 -4.15525,-4.7625 -0.49205,-0.765122 -2.28555,-3.091974 -3.98555,-5.170779 -4.01053,-4.904184 -5.54133,-7.06194 -7.08774,-9.990508 -2.2216,-4.207192 -3.63487,-8.703177 -5.11125,-16.260048 -1.10326,-5.64724 -1.95921,-7.848864 -3.8482,-9.898168 -3.0946,-3.357245 -7.61892,-3.704828 -11.91223,-0.915114 -0.93909,0.610182 -2.47243,1.389036 -3.40747,1.730772 l -1.70008,0.621347 -0.74885,-0.765942 c -0.41187,-0.42127 -1.05415,-0.82431 -1.42729,-0.895641 -0.98364,-0.18804 -7.40751,1.092702 -15.4581,3.081893 -10.33425,2.553467 -15.949367,3.439477 -38.761457,6.116161 -25.30837,2.969604 -33.24608,4.038521 -46.0375,6.199584 -9.69393,1.637745 -5.97614,1.205521 -42.201037,4.906301 -13.996961,1.429968 -32.820636,3.123883 -32.976952,2.967541 -0.04471,-0.04471 0.607748,-0.223626 1.449917,-0.397563 0.842168,-0.173964 3.408309,-0.850159 5.702538,-1.502675 2.294255,-0.652515 5.739315,-1.482672 7.655745,-1.844781 1.916404,-0.362082 5.71545,-1.081352 8.442325,-1.598348 2.726849,-0.516995 6.12013,-1.00621 7.540625,-1.087146 3.452918,-0.196718 12.047246,-1.51339 16.3136,-2.499254 1.895898,-0.438097 4.564619,-0.976392 5.930499,-1.196181 1.36586,-0.21979 3.83233,-0.747422 5.48101,-1.172501 4.93971,-1.273678 12.58334,-2.423531 18.38153,-2.765214 3.49313,-0.205846 6.85514,-0.734827 11.06559,-1.741064 1.81104,-0.432805 5.44972,-1.149244 8.08598,-1.592051 2.63628,-0.442833 6.71251,-1.150726 9.0583,-1.573106 2.3458,-0.422381 6.09539,-0.959433 8.33242,-1.19343 2.23702,-0.233998 5.43742,-0.770229 7.112,-1.191657 1.67457,-0.421402 4.47371,-1.007375 6.22033,-1.302173 1.74662,-0.294773 4.96067,-0.897493 7.14232,-1.339348 3.92488,-0.79494 6.49163,-1.16197 11.11326,-1.589087 3.363837,-0.310885 10.832387,-1.703705 14.137137,-2.636467 1.53789,-0.434049 4.34401,-1.155938 6.23578,-1.604169 5.81028,-1.37668 10.54293,-3.53105 16.28585,-7.413546 2.17646,-1.471396 4.33345,-3.928376 5.03182,-5.731586 0.8818,-2.27685 0.8451,-4.80992 -0.0976,-6.73677 -0.81375,-1.66322 -2.4706,-3.32608 -4.19428,-4.20947 -1.50259,-0.77012 -4.25185,-0.94451 -6.70703,-0.42548 -1.20692,0.25514 -1.88661,0.2979 -1.95117,0.12272 -0.0545,-0.14782 -0.42555,-0.63415 -0.82457,-1.08072 -0.62923,-0.70424 -0.89681,-0.80928 -2.01756,-0.792 -1.03695,0.0159 -1.89656,0.33144 -4.35297,1.59747 -13.75188,7.08758 -54.389547,14.39656 -95.231847,17.128122 -10.09081,0.674873 -54.658634,2.983759 -72.590796,3.760629 l -3.931417,0.170312 0.345281,-0.5529 c 0.591503,-0.947155 1.437455,-1.119769 5.479495,-1.118182 2.991723,0 6.089888,-0.268181 13.415142,-1.166362 10.859452,-1.331543 16.680709,-1.955139 20.108333,-2.154109 1.309688,-0.076 3.274219,-0.30789 4.365625,-0.51525 2.781168,-0.52842 8.399595,-1.1929 10.086552,-1.1929 1.344955,0 4.160545,-0.34425 9.757195,-1.19295 1.38245,-0.20966 3.88276,-0.50707 5.55625,-0.66093 7.40998,-0.68122 12.53205,-1.44026 23.03481,-3.41347 11.0141,-2.06925 12.7711,-2.35453 18.1079,-2.94002 3.31986,-0.36423 10.33661,-1.69958 12.43542,-2.36659 2.75323,-0.87498 6.53208,-1.82444 8.89495,-2.23489 2.48922,-0.4324 7.33194,-1.80829 10.71798,-3.04517 1.18274,-0.43203 3.16677,-0.97596 4.40899,-1.20874 1.24221,-0.23278 4.374557,-1.13102 6.960727,-1.99607 5.72149,-1.91381 11.50816,-3.49031 15.05485,-4.1015 4.2382,-0.73038 7.13454,-1.39792 8.64621,-1.99281 3.88988,-1.53077 7.03464,-3.77433 8.28784,-5.91275 2.13069,-3.63575 0.15634,-7.75354 -4.34497,-9.06211 -1.92995,-0.56105 -5.54728,-0.2963 -8.53688,0.12496 -86.632157,12.20726 -1.86792,0.34444 -2.80187,0.51665 l -1.8075,0.43619 c -1.81894,0.43895 0.21247,-2.67866 -8.4815,-0.89878 -4.34205,0.88892 -10.104617,2.14 -12.805697,2.78016 -14.63204,3.46779 -25.36595,5.00031 -53.69417,7.66611 -13.08669,1.23153 -27.68198,2.63486 -37.17396,3.57423 -19.454867,1.92538 -50.432495,3.57982 -55.959377,2.98863 l -1.984375,-0.21225 1.058334,-0.50908 c 0.717947,-0.34536 2.009351,-0.57862 4.015263,-0.7252 1.832557,-0.13393 3.744066,-0.46072 5.027084,-0.85947 1.138581,-0.35385 3.37984,-0.90046 4.980569,-1.21468 1.600729,-0.31419 4.220104,-0.91149 5.820834,-1.3273 1.600729,-0.41582 4.874948,-1.11948 7.276041,-1.56369 2.401094,-0.44421 5.362972,-0.99608 6.581961,-1.2264 1.328684,-0.25104 2.707719,-0.35118 3.443208,-0.25003 1.602713,0.22042 6.143069,-0.25381 8.713787,-0.91019 1.118738,-0.28562 3.223975,-0.70813 4.678283,-0.93885 1.454335,-0.23074 4.370626,-0.8159 6.480678,-1.30032 2.11005,-0.48445 5.26521,-1.01579 7.01146,-1.18076 1.74625,-0.16497 3.9489,-0.47389 4.89479,-0.68649 3.07464,-0.69106 6.40866,-1.15567 10.18646,-1.41946 2.03729,-0.14227 6.50213,-0.69165 9.92187,-1.22084 3.41974,-0.52919 7.94412,-1.06823 10.05417,-1.19785 2.11005,-0.12962 4.84849,-0.42169 6.08542,-0.64905 1.33019,-0.24447 3.72377,-0.41349 5.85893,-0.4137 4.11988,0 8.36097,-0.36647 10.67752,-0.92162 1.84608,-0.44239 11.98674,-1.95514 15.08125,-2.24975 1.88812,-0.17979 4.13452,-0.57944 11.37709,-2.02407 3.56862,-0.71183 6.787827,-1.58808 13.096867,-3.56486 1.81901,-0.56994 3.96214,-1.14499 4.7625,-1.27783 1.28802,-0.21384 3.96436,-1.29551 7.31362,-2.95593 1.76794,-0.87646 3.95493,-3.00363 4.74199,-4.61229 1.54945,-3.16696 0.50428,-6.7847 -2.20633,-8.50107 -1.12504,-0.71238 -1.3706,-1.01383 -4.00849,-1.03153 -1.6083,-0.0108 -3.04382,-0.15144 -3.37601,-0.33073 -0.84457,-0.45587 -1.85045,0.59038 -3.0429,1.19874 -0.79449,0.40532 -1.8091,0.77483 -1.88903,0.51924 -0.0583,-0.18632 0.5884,-4.84773 0.5041,-8.77679 -0.0843,-3.92907 -0.26215,-8.39391 -0.39523,-9.92188 -0.13311,-1.52797 -0.20481,-2.81564 -0.15933,-2.86152 0.15536,-0.15674 6.08536,1.99885 8.47074,3.07917 5.33352,2.41548 8.36501,4.31831 14.2875,8.96797 5.13847,4.03413 7.43619,6.25533 10.02149,9.68777 2.55312,3.38971 2.81342,3.85731 3.57526,6.42284 1.167,3.92986 0.69183,5.48751 -3.2558,10.67342 -1.2809,1.68267 -1.5838,2.85756 -1.06921,4.14724 0.78917,1.978 1.04905,2.27936 3.28813,3.81349 1.24124,0.85046 2.49492,1.76176 2.78596,2.02513 0.29104,0.26339 1.32138,1.16797 2.28968,2.01019 2.34397,2.03886 4.74088,5.60264 5.68632,8.4545 0.6373,1.92246 0.72329,2.58239 0.71562,5.4923 -0.01,3.70417 -0.24839,4.81682 -1.64137,7.65283 -1.27974,2.60546 -3.04943,4.49321 -5.65708,6.03452 -1.79314,1.05986 -2.21658,1.44576 -2.64806,2.41318 -1.00441,2.25192 -0.0246,4.00757 2.90616,5.20772 0.98356,0.40274 3.57425,1.50338 5.75706,2.44586 8.14727,3.517685 9.32453,4.341491 10.1849,7.127104 0.87307,2.82665 0.7271,4.494186 -0.81068,9.260496 -2.13376,6.613578 -2.46645,8.217403 -2.45777,11.848915 0.009,3.683847 0.64082,6.430777 2.60512,11.322791 1.84758,4.601422 3.30504,6.799606 7.93011,11.960542 0.91287,1.018646 2.4152,2.745052 3.33852,3.836459 0.92331,1.091406 4.37594,4.722812 7.67252,8.069791 7.64391,7.760812 12.02369,12.598982 12.81004,14.150764 1.42425,2.810642 1.58702,5.089313 2.24925,31.489859 0.26437,10.54034 0.95943,22.8591 2.26168,40.08438 0.36303,4.80219 0.73382,9.75188 0.82397,10.99928 l 0.16385,2.26806 -4.20346,3.17461 c -3.45287,2.60773 -8.45098,6.20823 -12.29982,8.86047 l -0.68802,0.47411 z m -59.54578,-20.32884 c -0.9729,-0.50736 -1.46111,-1.14702 -1.47185,-1.92836 -0.0279,-2.02928 1.78798,-2.20488 3.7619,-0.3638 0.82928,0.77345 0.9035,1.26907 0.31573,2.10825 -0.48573,0.69347 -1.49241,0.76451 -2.60578,0.18391 z m 20.21557,-12.93558 c 0,-0.0608 0.28427,-0.68588 0.63169,-1.38907 1.44434,-2.92333 1.8923,-7.45479 1.07834,-10.90792 -0.21934,-0.93054 -0.33846,-1.75226 -0.26466,-1.82602 0.21722,-0.21722 3.01386,1.74553 4.2537,2.98537 2.11408,2.11407 2.87266,4.38309 2.12228,6.34799 -0.74322,1.94606 -2.90436,3.57082 -5.95114,4.47413 -1.48463,0.44016 -1.87021,0.5052 -1.87021,0.31552 z M 80.139863,-122.42402 c -1.18843,-0.9348 -1.99316,-3.03866 -2.6969,-7.05062 -1.1567,-6.59434 -2.69941,-11.53975 -5.27931,-16.92373 -1.4052,-2.93248 -2.3975,-4.66706 -5.63134,-9.84384 -2.227,-3.565 -2.98111,-5.22465 -2.98426,-6.56781 -0.003,-0.91892 0.14409,-1.22587 0.90075,-1.89021 1.23822,-1.0872 2.55439,-1.47058 4.50961,-1.31363 1.12921,0.0906 1.96366,0.34023 2.70759,0.80984 3.44685,2.17593 9.80987,13.28504 12.22925,21.35097 1.16057,3.86924 1.61062,6.71865 1.61062,10.19731 0,3.63323 -0.50911,6.4603 -1.55985,8.66195 -1.26931,2.65957 -2.57302,3.53976 -3.80616,2.56977 z m -29.14623,-57.30262 c -2.43409,-1.22842 -5.699,-4.98635 -10.28124,-11.42928 -6.40649,-9.00803 -10.71946,-16.15157 -19.76485,-23.39791 -4.62547,-3.7055 -6.56803,-5.75331 -6.23738,-7.51586 0.20984,-1.11861 1.63434,-2.3936 3.29058,-2.55275 1.03069,-0.099 1.68167,0.98808 3.62297,1.81366 1.30159,0.55352 3.64015,-0.0379 3.85843,0.13748 0.21828,0.17538 1.05918,1.32476 1.61917,1.55607 1.36988,0.56587 4.67118,4.05115 7.67449,6.44555 3.16826,2.52589 8.73168,8.28379 11.17111,11.5616 6.01943,8.0882 10.06993,17.90734 8.87746,21.52056 -0.2598,0.78724 -0.47661,2.23263 -1.05837,2.2235 -0.38889,-0.006 0.60962,1.34419 -2.77237,-0.36262 z m 126.587237,-35.82902 c 0,-0.14552 0.1261,-0.26458 0.2802,-0.26458 0.15412,0 0.20661,0.11906 0.11668,0.26458 -0.0899,0.14552 -0.21603,0.26458 -0.2802,0.26458 -0.0642,0 -0.11668,-0.11906 -0.11668,-0.26458 z"
         id="path1050"
         sodipodi:nodetypes="ccsssccssssscssscssscccscscscsscsscsscccsssssscssscccscsccccsccccsssscssssscsscccscccsccssscccsscssccscsscsssscscscsssssscsscscsssscssccssssssccssccsssssssscssssssssccccssssscssssssssscssssss" />
      <path
         style="fill:#250d55;stroke-width:0.264583;fill-opacity:1"
         d="m -33.556624,228.40978 c -30.174988,-1.33967 -63.082858,-4.84775 -93.001046,-9.91423 -102.30776,-17.32524 -180.59178,-55.1628 -228.82183,-110.59809 -30.11007,-34.60829 -48.24207,-75.864266 -53.6071,-121.972911 -1.092,-9.38504 -1.38328,-14.45022 -1.52573,-26.53231 -0.29464,-24.9899 1.61393,-42.59273 8.09613,-74.670819 7.07134,-34.9936 16.76209,-68.12066 28.59902,-97.76354 11.94198,-29.90592 26.64434,-57.46083 43.31657,-81.18315 19.53946,-27.802 43.07469,-52.00713 68.5646,-70.51622 26.9197,-19.54729 56.38222,-33.90748 88.58848,-43.17846 22.92241,-6.59851 45.51119,-10.3983 72.58674,-12.21023 6.979814,-0.4671 37.39343,-0.47044 44.45,-0.005 66.958893,4.4176 122.701843,16.07879 171.83028,35.94614 16.85383,6.81563 34.81917,15.73164 49.55755,24.59489 44.32829,26.65783 78.43144,61.46822 102.17099,104.28991 22.93599,41.37216 36.22456,89.93859 39.83353,145.58179 1.24859,19.251109 1.30378,42.845989 0.14359,61.383339 C 303.77027,6.860932 289.74201,55.550007 265.76756,95.551223 227.89158,158.74715 165.59017,200.82582 82.992333,218.99862 c -21.58013,4.74795 -42.08986,7.46737 -69.18854,9.17382 -5.70899,0.35952 -40.663019,0.53467 -47.360417,0.23733 z m 40.745837,-5.57067 c 46.24985,-1.68617 90.41643,-10.48737 127.661447,-25.43951 24.37863,-9.78685 44.99923,-21.33407 64.79305,-36.2831 l 4.20346,-3.17461 -0.16385,-2.26806 c -0.0901,-1.2474 -0.46093,-6.19709 -0.82397,-10.99928 -1.30225,-17.22528 -1.99731,-29.54404 -2.26168,-40.08438 -0.66223,-26.400546 -0.825,-28.679217 -2.24925,-31.489859 -0.78635,-1.551782 -5.16613,-6.389952 -12.81004,-14.150764 -3.29658,-3.346979 -6.74921,-6.978385 -7.67252,-8.069791 -0.92332,-1.091407 -2.42565,-2.817813 -3.33852,-3.836459 -4.62507,-5.160936 -6.08253,-7.35912 -7.93011,-11.960542 -1.9643,-4.892014 -2.59631,-7.638944 -2.60512,-11.322791 -0.009,-3.631512 0.32401,-5.235337 2.45777,-11.848915 1.53778,-4.76631 1.68375,-6.433846 0.81068,-9.260496 -0.86037,-2.785613 -2.03763,-3.609419 -10.18489,-7.127104 -2.18282,-0.94248 -4.77351,-2.04312 -5.75707,-2.44586 -2.93085,-1.20015 -3.91057,-2.9558 -2.90616,-5.20772 0.43148,-0.96742 0.85492,-1.35332 2.64806,-2.41318 2.60765,-1.54131 4.37734,-3.42906 5.65708,-6.03452 1.39298,-2.83601 1.63163,-3.94866 1.64137,-7.65283 0.008,-2.90991 -0.0783,-3.56984 -0.71562,-5.4923 -0.94544,-2.85186 -3.34235,-6.41564 -5.68632,-8.4545 -0.9683,-0.84222 -1.99864,-1.7468 -2.28968,-2.01019 -0.29104,-0.26337 -1.54472,-1.17467 -2.78595,-2.02513 -2.23909,-1.53413 -2.49897,-1.83549 -3.28814,-3.81349 -0.51459,-1.28968 -0.21169,-2.46457 1.06921,-4.14724 3.94763,-5.18591 4.4228,-6.74356 3.2558,-10.67342 -0.76184,-2.56553 -1.02214,-3.03313 -3.57526,-6.42284 -2.5853,-3.43244 -4.88302,-5.65364 -10.02149,-9.68777 -5.92249,-4.64966 -8.95398,-6.55249 -14.2875,-8.96797 -2.38175,-1.07868 -8.31641,-3.23641 -8.469,-3.07917 -0.0445,0.0459 0.0241,1.27402 0.15227,2.72923 0.12824,1.45521 0.31374,6.11132 0.4122,10.34693 l 0.17901,7.70106 1.08464,-0.62028 c 1.25698,-0.71885 2.25395,-0.78809 3.33068,-0.2313 1.53315,0.79282 2.03006,2.48486 1.20073,4.0886 -0.76404,1.47749 -5.26169,4.24508 -9.13532,5.62134 -3.38974,1.20433 -12.533837,1.42849 -26.193747,0.64212 -23.95281,-1.37896 -33.93043,-1.38256 -50.8,-0.0185 -6.17628,0.49942 -18.37796,2.1591 -18.59585,2.52941 -0.0333,0.0567 -0.63309,1.82947 -1.33278,3.93952 -2.31037,6.96743 -5.4792,12.24864 -9.214725,15.35734 -4.382717,3.64736 -12.097252,5.71058 -18.785787,5.0242 -3.200876,-0.32848 -8.082544,-1.38885 -10.665539,-2.31672 -6.625431,-2.38003 -12.179856,-6.59304 -15.034736,-11.40386 -1.476032,-2.48727 -2.107248,-4.17465 -2.973653,-7.94903 -0.346313,-1.50882 -0.695642,-2.80924 -0.776261,-2.88986 -0.175842,-0.17587 -9.51566,0.34795 -16.150881,0.9058 -3.901149,0.328 -11.677147,0.41537 -42.994791,0.4831 -45.20039,0.0977 -48.41703,0.21757 -51.85833,1.93183 -1.39277,0.69382 -1.51829,0.84569 -2.9254,3.54034 -2.24761,4.30421 -3.79457,6.44054 -6.98463,9.64554 -7.73898,7.77531 -16.34762,10.66943 -25.14727,8.45418 -3.46098,-0.87127 -5.68047,-1.83221 -7.91548,-3.4271 -4.13071,-2.94761 -7.16923,-7.47096 -9.79242,-14.57764 -1.88383,-5.10368 -3.18378,-8.18197 -3.71697,-8.80184 -0.47279,-0.54964 -0.95523,-0.67344 -3.9764,-1.02023 -1.89105,-0.21709 -5.64097,-0.86958 -8.3331,-1.45002 -6.29806,-1.35787 -10.38376,-2.08937 -11.66987,-2.08937 -1.78773,0 -6.82133,-1.32413 -9.06701,-2.38516 -1.33562,-0.63106 -1.7955,-1.00706 -2.15291,-1.76025 -0.85057,-1.79244 0.31806,-3.81873 2.431,-4.21513 0.6888,-0.12922 1.42713,0.0262 2.94972,0.62127 l 2.03094,0.79364 0.15838,-7.17666 c 0.16217,-7.34891 0.32817,-9.2129 1.44716,-16.25021 0.35388,-2.22554 0.64342,-4.173219 0.64342,-4.328159 0,-0.16983 -0.2679,-0.21447 -0.67455,-0.11239 -0.37101,0.0931 -1.71046,0.34816 -2.97657,0.56682 -3.31839,0.57303 -5.02789,1.08222 -9.04064,2.692929 -10.50159,4.21531 -18.07521,9.21731 -21.99977,14.5298 -1.63133,2.20824 -2.81009,4.94813 -3.57031,8.29879 -0.60144,2.65081 -0.6719,3.43916 -0.55516,6.21117 0.29512,7.00744 2.1554,11.58642 6.93318,17.06563 2.02469,2.32195 2.43705,3.35166 1.99686,4.98639 -0.43742,1.62446 -1.84043,3.01776 -4.74328,4.71043 -6.90091,4.02394 -9.34278,6.96563 -9.74045,11.73411 -0.18497,2.21792 0.17689,3.07607 2.33633,5.54069 3.66722,4.1855 4.58783,5.94418 4.99033,9.53323 0.26879,2.39681 -0.2524,6.37003 -1.03744,7.90885 -0.66643,1.30627 -1.8851,2.33484 -3.13941,2.64961 -0.53909,0.13528 -2.20366,0.32269 -3.69904,0.41643 -6.62939,0.41558 -10.87875,2.760478 -13.0718,7.21331 -0.83105,1.68738 -0.88251,1.960298 -0.96099,5.096457 -0.0709,2.833 0.0111,3.678185 0.56552,5.827157 0.81883,3.174021 1.80667,5.323893 3.82956,8.334375 2.19436,3.265673 3.69037,4.868995 8.50365,9.113599 4.4182,3.896202 5.25876,5.005758 6.22455,8.216609 0.60409,2.008347 0.833,6.935312 0.4198,9.035574 -0.63159,3.210322 -1.70856,4.603777 -6.18565,8.003434 -1.62567,1.23444 -4.20592,3.381402 -5.73389,4.77102 -1.52797,1.389644 -3.74191,3.351662 -4.91987,4.360069 -1.17797,1.008432 -4.09098,3.896809 -6.47335,6.418685 -2.38238,2.52185 -5.38127,5.623799 -6.66421,6.893216 -2.98002,2.948676 -5.04812,5.509975 -5.92322,7.335864 -0.82666,1.724846 -1.85591,8.137287 -2.86871,17.872762 -0.36333,3.4925 -0.9001,8.61219 -1.19281,11.37709 -0.29271,2.76489 -0.67511,8.34718 -0.84977,12.40509 l -0.31756,7.37801 0.78027,0.64416 c 2.00897,1.65848 11.50377,8.71434 14.98905,11.13877 54.71629,38.06174 130.99176,62.88693 223.25477,72.66223 33.126177,3.50973 59.443461,4.58568 87.312503,3.56963 z m 70.51146,-34.12919 c -11.15397,-1.04548 -22.59087,-4.38888 -33.86667,-9.90039 -7.74139,-3.78391 -13.74415,-7.93636 -18.93628,-13.09926 -6.01409,-5.98024 -11.45165,-14.11018 -14.09862,-21.07949 -4.66971,-12.29508 -4.32768,-27.214 0.90205,-39.34446 3.9842,-9.241449 13.11034,-18.633919 26.97347,-27.760668 19.25783,-12.678357 30.96747,-17.487265 46.30209,-19.015339 4.3539,-0.433864 19.095767,-0.581025 22.621867,-0.225822 16.68262,1.680501 32.88403,8.959797 44.13533,19.829938 6.96529,6.729334 11.34711,13.942272 14.86316,24.466281 4.94847,14.81151 5.51696,28.02277 1.70883,39.71259 -2.16138,6.63477 -6.4231,14.02649 -11.47124,19.89621 -5.92752,6.89221 -14.19355,12.86547 -23.77234,17.17853 -9.34911,4.20965 -21.97386,7.52829 -34.194987,8.98882 -3.89001,0.4649 -17.54386,0.69265 -21.16666,0.35306 z m 21.96041,-6.68515 c 30.751987,-4.22714 51.023707,-16.23843 60.342617,-35.75391 2.09997,-4.39772 3.16767,-7.5869 3.8398,-11.46943 1.57286,-9.08581 0.59494,-19.0868 -2.89849,-29.6415 -3.26268,-9.857506 -6.61419,-15.58809 -12.73289,-21.771296 -10.61717,-10.729119 -25.95049,-17.581642 -42.59791,-19.037142 -3.47925,-0.304191 -11.101207,-0.175789 -18.256247,0.307578 -13.19771,0.891567 -22.55208,4.104455 -36.5125,12.540668 -12.41579,7.502816 -18.93163,12.355169 -25.22749,18.786872 -7.82014,7.98888 -11.36378,16.56697 -11.73396,28.40437 -0.39534,12.64259 2.5227,21.15558 10.97759,32.0257 2.42329,3.11552 4.5439,5.32336 7.45998,7.76689 10.70771,8.97253 27.84446,16.10059 43.39471,18.05012 4.0713,0.5104 19.704,0.37404 23.94479,-0.20892 z m 26.642857,-28.36995 c -3.72039,-1.00131 -6.23769,-3.58201 -6.95304,-7.12819 -0.39518,-1.95897 0.074,-3.87808 1.43176,-5.85557 1.47691,-2.15112 3.35656,-3.08531 6.2628,-3.11253 2.97005,-0.0278 6.8099,2.53862 8.34874,5.58009 1.03153,2.03877 1.03976,3.83891 0.0276,6.03384 -1.19739,2.5966 -2.63104,3.81583 -5.33363,4.53599 -1.61745,0.43101 -2.00392,0.42553 -3.78422,-0.0536 z m 3.24006,-6.5256 c 0.58777,-0.83918 0.51355,-1.3348 -0.31573,-2.10825 -1.97392,-1.84108 -3.78976,-1.66548 -3.7619,0.3638 0.0246,1.78699 3.12021,3.11137 4.07763,1.74445 z m 8.44759,-6.88573 c -1.95605,-1.94181 -1.39904,-3.06832 1.54572,-6.30544 2.38905,-2.62623 3.10944,-3.96293 3.45125,-6.40398 0.29655,-2.11756 0.0593,-3.73078 -1.24949,-8.49693 -1.09189,-3.97624 -0.56888,-5.89569 1.77866,-6.5278 2.83564,-0.76356 9.8322,2.49369 13.74312,6.3981 5.44372,5.43467 5.52847,12.73839 0.2033,17.52314 -1.81255,1.62862 -3.92816,2.6969 -7.26765,3.6699 -2.38321,0.69438 -8.04339,3.79646 -11.01013,1.23341 l -0.35769,-0.30901 z m 11.03241,-6.18146 c 3.04678,-0.90331 5.20792,-2.52807 5.95114,-4.47413 0.75038,-1.9649 -0.008,-4.23392 -2.12228,-6.34799 -1.23984,-1.23984 -4.03648,-3.20259 -4.2537,-2.98537 -0.0738,0.0738 0.0453,0.89548 0.26466,1.82602 0.81396,3.45313 0.366,7.98459 -1.07834,10.90792 -0.34742,0.70319 -0.63169,1.32826 -0.63169,1.38907 0,0.18968 0.38558,0.12464 1.87021,-0.31552 z m -28.94894,-22.1729 c -1.37713,-0.50721 -2.23967,-1.35515 -2.98392,-2.93333 -0.73683,-1.5625 -0.76083,-1.97364 -0.22129,-3.79048 1.06328,-3.58044 5.16175,-4.90643 7.79949,-2.52341 2.02949,1.83351 2.37694,4.75499 0.85781,7.21217 -1.22643,1.98369 -3.39442,2.79292 -5.45209,2.03505 z m -29.806687,-1.64031 c -2.11005,-0.48811 -5.38427,-1.13276 -7.27604,-1.43259 -1.89177,-0.29983 -3.86125,-0.6563 -4.3766,-0.79219 -2.37953,-0.62738 -3.32283,-3.33669 -1.73779,-4.99115 1.03484,-1.08011 1.70403,-1.17441 4.93377,-0.69527 3.13497,0.46505 11.088,2.07237 13.09423,2.64633 2.48832,0.71189 3.63079,2.7954 2.51304,4.58309 -0.54724,0.87521 -1.95284,1.66809 -2.84263,1.60348 -0.25932,-0.0188 -2.19792,-0.43363 -4.30798,-0.9217 z M 66.433543,94.711557 c -1.48793,-0.545439 -2.84967,-1.782869 -3.32324,-3.019822 -0.4013,-1.048253 -0.39918,-1.206474 0.0316,-2.334313 0.59476,-1.557364 1.28656,-2.309733 2.89039,-3.143462 2.21766,-1.152789 4.32858,-0.794305 5.90672,1.003115 1.5957,1.81737 1.64719,3.969782 0.13787,5.763472 -1.27394,1.513998 -3.9751,2.342541 -5.6433,1.73101 z M -100.23162,181.40191 c -5.4155,-0.90019 -10.28677,-2.45369 -15.21355,-4.85177 -9.81583,-4.77779 -16.48946,-11.03066 -20.87673,-19.56048 -3.71015,-7.21334 -4.91236,-15.75491 -3.2416,-23.03074 1.26188,-5.49521 3.62141,-11.15436 6.43255,-15.42806 0.68818,-1.04617 2.68679,-3.33905 4.4414,-5.09527 3.61638,-3.61968 7.06692,-6.07899 11.63847,-8.29506 10.13219,-4.91159 20.335002,-6.862152 32.075225,-6.132087 9.145535,0.568695 12.840336,1.360697 17.684856,3.790707 6.079014,3.0493 9.694281,5.88336 11.90379,9.33165 2.269146,3.54129 4.367027,8.9536 5.336672,13.76794 0.675402,3.35343 0.674608,11.94577 -0.0026,16.52685 -2.330106,15.78784 -7.902601,24.40051 -20.429379,31.575 -6.56799,3.76172 -13.035332,6.17914 -19.210231,7.18058 -2.267982,0.36783 -8.828511,0.50522 -10.539973,0.22075 z m 11.37708,-6.68903 c 4.933579,-1.0133 9.532725,-2.84567 15.176738,-6.04668 7.09975,-4.02664 10.840005,-7.73658 13.741664,-13.63025 1.79959,-3.65519 2.40583,-5.60369 3.219027,-10.34622 1.376363,-8.02679 1.46177,-13.69512 0.289772,-19.23049 -0.786501,-3.7147 -3.339915,-9.23827 -5.363554,-11.60251 -1.077357,-1.25868 -4.851241,-3.84657 -7.675325,-5.26323 -2.438373,-1.22319 -6.745446,-2.47083 -10.127906,-2.93378 -3.558963,-0.48709 -12.413985,-0.65317 -16.007291,-0.30019 -7.142585,0.70162 -13.277985,2.5491 -20.002055,6.02295 -6.63792,3.42931 -11.80332,8.59213 -14.77872,14.77123 -2.70722,5.62213 -3.87871,10.72833 -3.64051,15.86786 0.22117,4.77176 1.00584,7.8876 2.96688,11.7811 3.05893,6.07317 7.59518,10.87721 14.09168,14.92351 5.43645,3.38603 10.55913,5.23668 18.320016,6.61834 1.526038,0.27167 7.161901,-0.0919 9.789584,-0.63164 z m 6.64673,-19.24595 c -1.961647,-0.96637 -2.413106,-3.32063 -0.933053,-4.86548 1.825175,-1.90508 4.893019,-0.79319 5.287777,1.91646 0.163036,1.11919 -0.308187,2.02649 -1.453303,2.79818 -1.058545,0.71337 -1.692646,0.74631 -2.901421,0.15084 z m -33.10506,-1.32316 c -1.15827,-0.59211 -1.96779,-2.12246 -1.71985,-3.25128 0.0961,-0.43764 0.53158,-1.15249 0.96766,-1.58858 0.66001,-0.66003 1.00521,-0.7929 2.05978,-0.7929 1.56078,0 2.52701,0.68154 2.94524,2.07742 0.75597,2.5232 -1.9108,4.75261 -4.25283,3.55534 z m 14.88818,-13.86017 c -0.28136,-0.10409 -0.82926,-0.56681 -1.21759,-1.0283 -0.85574,-1.01701 -0.91373,-2.17429 -0.17007,-3.39408 0.84926,-1.39292 1.80642,-1.63777 6.400879,-1.63729 4.656032,0 5.540745,0.26313 6.420485,1.90616 0.487389,0.91025 0.496887,1.06027 0.132292,2.0927 -0.722181,2.04517 -1.217269,2.21612 -6.470809,2.23425 -2.521003,0.009 -4.813827,-0.0694 -5.095187,-0.17344 z m -85.69444,1.34054 c -3.50253,-0.6269 -8.1158,-3.12671 -10.14587,-5.49778 -2.11109,-2.46565 -3.44057,-5.71386 -3.44681,-8.42131 -0.004,-1.69604 0.98139,-5.16078 1.92606,-6.77273 0.39277,-0.67021 1.08371,-1.49601 1.53538,-1.83504 0.4517,-0.33907 1.43452,-1.22576 2.18406,-1.97041 1.45404,-1.44457 4.57266,-3.17714 7.03524,-3.90845 4.09493,-1.21605 9.60456,0.19164 12.64325,3.23032 4.90625,4.90628 5.35794,13.4578 1.05156,19.90895 -2.68158,4.01714 -7.85485,6.14849 -12.78287,5.26645 z m 5.58647,-6.76608 c 3.34274,-1.73358 5.06825,-7.9233 3.27474,-11.74705 -1.28865,-2.74738 -3.30546,-4.05019 -6.31745,-4.08096 -1.39867,-0.0143 -2.04492,0.13626 -3.46096,0.80621 -0.95764,0.4531 -2.11223,1.16689 -2.56578,1.58625 -0.45352,0.41934 -1.30849,1.17917 -1.89994,1.6885 -1.27569,1.0986 -1.97909,2.74809 -1.96937,4.6184 0.0156,3.00541 2.67639,5.87127 6.81844,7.34391 1.80993,0.64349 4.65759,0.54332 6.12032,-0.21526 z m -54.19596,-6.20041 c -4.64423,-0.72668 -6.74341,-1.60546 -10.0978,-4.22722 -4.71704,-3.68678 -8.1013,-7.46493 -9.89816,-11.05014 -2.33563,-4.66024 -3.04932,-8.89066 -2.31197,-13.70433 1.63268,-10.658581 8.12392,-19.314451 17.92805,-23.906506 3.48774,-1.633591 5.69808,-2.16707 9.62791,-2.32373 6.69402,-0.266859 12.23894,1.51093 18.98931,6.088274 6.50928,4.413885 10.99516,9.982862 12.53006,15.555463 0.56128,2.037715 0.63116,7.221039 0.12988,9.632999 -1.54691,7.44321 -5.4955,13.69984 -11.25736,17.8376 -3.92753,2.82046 -6.62575,4.03628 -11.8477,5.33853 -2.84986,0.71069 -3.80936,0.82285 -7.75043,0.90588 -2.47386,0.0521 -5.19266,-0.014 -6.04179,-0.14682 z m 11.1582,-6.45612 c 7.2918,-1.56213 12.77831,-5.02423 16.2665,-10.26446 2.55124,-3.83273 3.75028,-8.11067 3.57719,-12.762813 -0.089,-2.392865 -0.19212,-2.849033 -1.0481,-4.638251 -1.75424,-3.666861 -4.17163,-6.321425 -8.71627,-9.571408 -7.16642,-5.124926 -14.69553,-6.725814 -20.93036,-4.450398 -10.32388,3.767746 -16.97128,13.19665 -16.56973,23.50307 0.0956,2.4525 0.2233,3.08922 0.97594,4.86447 1.21003,2.85406 2.54376,4.79216 4.81907,7.0027 3.6846,3.57979 6.79271,5.74395 8.86791,6.17477 4.10274,0.85172 9.18192,0.90839 12.75785,0.14232 z M -77.212874,67.368139 c -4.859734,-0.275405 -22.590866,-2.54418 -32.690916,-4.182956 -3.19328,-0.518134 -8.5444,-1.353397 -11.89137,-1.856185 -8.41905,-1.264682 -12.8668,-2.069782 -19.1823,-3.47218 -10.6009,-2.353998 -14.44948,-3.528113 -22.5666,-6.884617 -5.37763,-2.223664 -7.43717,-3.330813 -13.07801,-7.030297 l -4.02691,-2.640991 -10.47686,-0.887889 c -5.76229,-0.488315 -13.01248,-1.190598 -16.11157,-1.560565 -3.09906,-0.369994 -6.41892,-0.672703 -7.37745,-0.672703 -3.9565,0 -6.26677,-1.214332 -6.26677,-3.293983 0,-1.324399 0.60349,-2.377149 1.64198,-2.864406 0.77428,-0.363273 1.37369,-0.369173 5.36948,-0.05297 2.47386,0.195792 6.52198,0.59862 8.99584,0.895218 7.66204,0.91858 26.66021,2.436019 36.64479,2.926927 2.98318,0.146658 11.31755,0.562874 18.52083,0.924877 32.69118,1.64301 45.0423,1.642534 78.31667,-0.0029 22.870609,-1.130988 33.526703,-1.949053 58.340625,-4.478761 35.799948,-3.649715 32.668898,-3.285913 42.333338,-4.918684 12.79141,-2.161063 20.72912,-3.22998 46.03749,-6.199584 22.81209,-2.676684 28.427207,-3.562694 38.761457,-6.116161 8.21108,-2.028852 14.60805,-3.294645 15.42696,-3.052578 2.09709,0.619919 2.99961,3.076311 1.76651,4.808009 -0.63084,0.885931 -1.29053,1.123685 -5.15493,1.857745 -1.60072,0.304086 -6.26668,1.377897 -10.36878,2.386277 -11.76702,2.892584 -15.16914,3.414369 -45.590587,6.992171 -13.62818,1.602766 -18.15002,2.217737 -19.00044,2.584 -0.39106,0.168434 -1.36586,0.71792 -2.16623,1.221105 -11.14369,7.005902 -21.14362,11.992028 -37.04166,18.46961 -4.70064,1.915239 -11.620318,4.559353 -15.06514,5.756592 -4.895612,1.701456 -18.72242,5.514473 -25.416113,7.008998 -6.255227,1.39663 -23.205917,3.664426 -31.704915,4.241747 -3.669824,0.24929 -13.30579,0.303292 -16.978419,0.09514 z m 20.108334,-6.575901 c 6.60527,-0.575231 20.231999,-2.417101 25.532291,-3.451066 6.847973,-1.335908 22.00529,-5.54191 28.682236,-7.959064 3.506179,-1.269285 15.455106,-5.985457 17.487556,-6.902238 0.65484,-0.295381 3.45281,-1.515348 6.21771,-2.711027 4.74205,-2.050732 14.53155,-6.85718 14.34542,-7.043314 -0.0471,-0.04712 -2.81118,0.385736 -6.14233,0.961893 -6.43134,1.112361 -7.34997,1.221078 -31.221842,3.695091 -37.243067,3.859742 -46.850035,4.571312 -86.386458,6.398392 -15.289133,0.706544 -37.915423,0.39714 -61.251043,-0.837538 -5.23875,-0.277204 -11.43,-0.573855 -13.75833,-0.659262 l -4.23334,-0.155284 1.84553,0.969565 c 2.64199,1.388031 11.07617,4.724956 14.95552,5.917063 5.53598,1.701191 17.19971,4.199784 25.4,5.441129 2.54661,0.385498 7.94223,1.228831 11.99028,1.874071 11.9376,1.902777 26.996573,3.964331 33.385758,4.570439 4.176765,0.39624 18.103374,0.330755 23.151042,-0.10885 z M -246.94308,34.618649 c -5.54694,-1.570143 -11.60756,-3.637095 -16.27188,-5.549424 -3.85929,-1.582287 -12.37889,-5.831205 -13.16342,-6.564921 -0.9883,-0.924295 -1.20731,-2.241788 -0.586,-3.525255 0.57194,-1.18147 1.39583,-1.701377 2.69613,-1.701377 0.51931,0 2.90706,1.031293 6.4037,2.765822 7.68347,3.811402 14.441,6.368812 23.17042,8.768953 2.4011,0.660162 4.64346,1.380279 4.98304,1.600227 2.18576,1.415759 1.24445,5.087408 -1.41116,5.504339 -0.49071,0.07705 -2.71305,-0.418651 -5.82083,-1.298364 z M -92.63615,9.071462 c -0.82984,-0.652754 -1.33014,-2.064571 -1.090825,-3.078084 0.248788,-1.05357 1.329637,-2.131853 2.318703,-2.313199 1.314635,-0.241009 9.224274,-0.640186 24.117273,-1.21711 7.567084,-0.293131 17.270677,-0.710829 21.563542,-0.928211 4.292865,-0.217382 14.05599,-0.695642 21.695833,-1.062831 49.177447,-2.363497 64.463217,-3.453448 83.740627,-5.971198 28.40561,-3.70996 51.543287,-8.94998 60.968307,-13.80752 3.57616,-1.84314 5.06904,-2.08264 6.2231,-0.99846 0.94541,0.88816 1.31675,2.17403 0.94935,3.28729 -0.40423,1.22481 -0.74141,1.47942 -4.37618,3.30431 C 110.08461,-6.991421 72.884143,0.2434 36.293373,3.241447 25.588573,4.118541 7.991323,5.145283 -18.21079,6.42158 c -3.128698,0.1524 -12.951355,0.630899 -21.828125,1.06336 -8.876771,0.432462 -21.080677,0.971021 -27.119792,1.19679 -6.039115,0.225769 -13.004271,0.52406 -15.478125,0.662914 -7.271359,0.408067 -9.200224,0.355388 -9.999318,-0.273182 z M -198.39204,8.517239 c -11.13002,-1.432084 -15.88156,-2.288858 -30.03021,-5.415042 -14.27414,-3.153886 -23.25339,-5.391653 -29.10417,-7.253208 -1.30969,-0.41669 -3.0471,-0.94282 -3.86091,-1.16911 -1.83536,-0.51041 -2.75792,-1.21566 -3.15191,-2.40946 -0.38662,-1.17147 0.0219,-2.54365 0.98224,-3.29904 0.99215,-0.78041 2.49178,-0.67587 6.08136,0.42395 7.5449,2.31171 14.9363,4.22187 24.55547,6.34589 19.88767,4.3914 23.11633,5.00653 32.49835,6.191599 3.46755,0.438018 6.50365,0.903684 6.74688,1.034865 1.92399,1.03751 2.3854,3.36087 0.95207,4.794197 -0.96379,0.963771 -2.47964,1.165754 -5.66917,0.755359 z m 28.12177,-2.49002 c -1.64936,-0.6935 -2.28611,-2.899119 -1.28019,-4.434338 0.85598,-1.306353 2.18583,-1.566862 7.49898,-1.46894 5.44089,0.100277 5.9467,0.271568 6.64652,2.250863 0.33898,0.958692 0.32673,1.15242 -0.13229,2.092696 -0.86611,1.774269 -1.60523,1.9753 -7.1306,1.939528 -3.29174,-0.02143 -5.03015,-0.139171 -5.60242,-0.379809 z m -8.6551,-27.40271 c -0.57119,-0.13835 -4.50025,-0.78605 -8.73125,-1.43931 -15.01061,-2.31759 -24.42571,-4.49805 -43.14688,-9.99244 -4.22011,-1.23854 -9.45886,-2.75169 -11.64167,-3.36259 -7.04348,-1.9712 -7.99089,-2.31936 -8.58629,-3.15552 -1.10161,-1.5471 -0.50216,-3.83302 1.21938,-4.64995 0.98411,-0.46699 1.01048,-0.46426 3.91426,0.40238 1.60792,0.47987 5.36427,1.55419 8.34744,2.38733 2.98318,0.83315 8.46006,2.41581 12.17084,3.517 14.63804,4.34391 23.50084,6.34537 38.23229,8.63383 4.80219,0.746 9.34852,1.53083 10.10296,1.74403 2.78032,0.78579 3.55629,3.60805 1.49966,5.45444 -0.64326,0.57751 -2.08677,0.77425 -3.38074,0.4608 z m 104.887496,-0.65281 c -22.604835,-0.49821 -33.997586,-0.85833 -50.006246,-1.58072 -20.10514,-0.90723 -23.90937,-1.44817 -24.99866,-3.55465 -0.80539,-1.55747 -0.25048,-3.28327 1.3293,-4.13404 0.8015,-0.43164 1.01123,-0.42643 4.38422,0.10909 7.72933,1.22716 35.37609,2.27801 84.587266,3.21513 8.012139,0.15259 15.713763,0.14875 20.6375,-0.0103 11.873495,-0.38349 30.009042,-1.60195 43.044747,-2.89206 9.49198,-0.93937 24.08727,-2.3427 37.17396,-3.57423 28.32822,-2.66581 39.06213,-4.19833 53.69417,-7.66611 2.70108,-0.64016 8.463647,-1.89125 12.805697,-2.78017 8.41782,-1.72333 8.99036,-1.75511 10.07303,-0.55874 1.14721,1.26767 0.95652,3.59603 -0.3729,4.55324 -0.42138,0.30339 -3.51759,1.05796 -8.53038,2.07891 -4.3279,0.88146 -10.638207,2.24398 -14.022917,3.02781 -14.971,3.46705 -24.59098,4.84344 -51.92691,7.42955 -6.985,0.6608 -20.08188,1.91336 -29.10417,2.78347 -40.810602,3.93571 -51.685215,4.37108 -88.767707,3.55378 z M 212.63817,150.53147 c 10.27347,-8.85957 22.31188,-21.57066 31.12643,-32.8657 33.03505,-42.331424 52.04833,-95.075132 57.36222,-159.125601 1.0605,-12.78294 1.2051,-17.16497 1.20475,-36.5125 0,-21.48578 -0.33703,-29.223489 -2.00297,-46.037499 -8.48614,-85.64887 -41.22674,-153.21633 -97.7446,-201.71754 -55.70368,-47.80254 -134.387117,-77.02093 -233.759374,-86.80447 -21.806561,-2.14693 -38.323758,-2.87324 -56.488541,-2.48396 -92.075475,1.97319 -169.272345,38.26104 -224.018385,105.30407 -20.62757,25.26091 -37.77801,54.005 -52.39033,87.80607 -14.63751,33.85931 -26.68667,74.43264 -34.60972,116.54181 -3.2372,17.204959 -4.58826,26.980359 -5.83361,42.208189 -0.45927,5.61581 -0.62914,26.0863 -0.27044,32.58899 1.20459,21.8371 4.80184,41.257303 11.23926,60.676635 9.16652,27.651975 23.29643,52.165859 43.33259,75.177416 3.83613,4.40581 17.09012,17.65744 21.51522,21.51139 l 3.43958,2.99564 0.30989,-5.39221 c 0.17044,-2.96574 0.61967,-8.30927 0.99829,-11.87453 0.37862,-3.56526 0.87014,-8.32776 1.09228,-10.58333 0.42637,-4.329325 0.85175,-7.170395 1.72327,-11.509376 1.69345,-8.43108 2.14004,-9.304443 7.78252,-15.219521 1.74625,-1.830626 5.25859,-5.51688 7.80521,-8.191659 2.54661,-2.674805 5.41864,-5.52622 6.38228,-6.336453 0.96364,-0.81026 3.16629,-2.762806 4.89479,-4.339008 1.72849,-1.576203 4.46953,-3.863076 6.0912,-5.081958 1.62166,-1.218856 3.18517,-2.517034 3.47447,-2.884805 1.06251,-1.350751 0.95851,-6.865012 -0.17113,-9.074415 -0.30555,-0.597588 -1.90591,-2.208424 -4.0063,-4.032488 -5.74025,-4.98512 -9.02457,-8.910055 -11.57635,-13.834401 -3.12685,-6.034114 -4.30789,-13.988309 -2.81803,-18.97925 1.39823,-4.683998 5.05077,-8.966677 9.5719,-11.223257 2.1569,-1.07656 5.97036,-2.00506 8.97895,-2.1862 l 2.69782,-0.16242 0.18051,-1.44476 c 0.22875,-1.83081 0.008,-4.01807 -0.50488,-4.99579 -0.21838,-0.41656 -1.42535,-1.94429 -2.68216,-3.395 -4.33822,-5.0075 -5.10493,-8.19639 -3.4053,-14.16341 1.36311,-4.78559 4.90412,-8.65597 11.38709,-12.44634 l 1.63967,-0.95867 -1.08458,-1.30114 c -4.6254,-5.549 -7.14051,-12.70912 -7.19512,-20.48343 -0.0539,-7.67892 2.88616,-15.01704 8.22294,-20.52339 3.47362,-3.58401 7.91929,-6.67075 14.23994,-9.887159 7.03666,-3.58079 12.80357,-5.63308 18.61493,-6.62461 1.70396,-0.29072 3.63868,-0.71279 4.2994,-0.93789 l 1.20129,-0.40934 1.2266,-6.01035 c 0.67463,-3.30571 1.64117,-8.03445 2.14788,-10.5083 0.5067,-2.47386 1.532,-7.59354 2.27845,-11.37708 4.24799,-21.53206 10.61353,-40.95372 17.93569,-54.72295 4.48222,-8.42876 11.90506,-19.30556 18.99047,-27.82705 3.37098,-4.05425 12.76292,-13.5169 16.94775,-17.07536 4.96049,-4.21805 5.47235,-4.62745 7.01212,-5.60867 0.8195,-0.52222 1.65293,-1.17826 1.85209,-1.45786 0.37248,-0.52297 3.77192,-3.09129 7.50583,-5.67078 8.77927,-6.06496 20.25938,-11.44124 32.3814,-15.16463 13.75241,-4.22419 30.864915,-7.34423 45.645599,-8.32235 5.377418,-0.35585 20.079308,-0.35815 24.895916,-0.004 23.969609,1.76295 50.620639,8.44789 72.295228,18.13397 9.49642,4.24382 22.87085,12.20766 31.67253,18.85947 13.44705,10.16256 28.80056,27.45123 37.21079,41.90089 3.25572,5.59366 6.02443,11.37422 8.96956,18.72692 2.01512,5.03086 6.51298,18.95853 8.165667,25.28509 0.71978,2.75534 1.99123,7.62907 2.82544,10.83053 1.66351,6.38408 5.10865,20.76641 5.9259,24.73854 0.28442,1.38245 0.89267,5.13292 1.35165,8.33438 0.45899,3.20146 0.85299,5.834319 0.87555,5.850809 0.0225,0.0164 1.94602,0.66037 4.27435,1.43086 7.2744,2.40724 13.1517,5.30641 18.26474,9.00976 4.01503,2.90806 8.47651,6.52959 11.06043,8.9781 2.83287,2.68441 6.83726,7.91948 7.99277,10.44922 0.77388,1.69423 1.72416,4.96482 2.11405,7.27604 0.38645,2.29076 -1.39049,7.3569 -3.5265,10.05417 -0.51858,0.65484 -1.04521,1.32741 -1.1703,1.4946 -0.15426,0.20616 0.50186,0.75121 2.03895,1.69384 6.26751,3.84352 10.135,8.76855 11.83236,15.06781 0.87659,3.25318 0.87177,9.2403 -0.01,12.30312 -0.86564,3.00715 -3.02117,6.98193 -4.89577,9.02772 -0.86154,0.94019 -1.51929,1.75662 -1.46167,1.81422 0.0576,0.0576 1.47159,0.71474 3.14217,1.46026 5.34098,2.3835 7.40484,3.52372 9.01425,4.98017 2.4389,2.207104 3.63175,4.704453 4.21655,8.828037 0.41172,2.90285 0.10774,4.43439 -2.51079,12.651052 -1.29452,4.062042 -1.54106,7.797245 -0.72715,11.015848 0.88964,3.518059 2.59122,7.51885 4.16036,9.78191 0.79653,1.148795 1.74406,2.528597 2.10561,3.066283 0.97052,1.443196 6.59371,7.480565 13.25933,14.235959 3.23069,3.274219 6.39278,6.548438 7.02683,7.276042 0.63407,0.727604 2.12005,2.364105 3.30216,3.636671 1.24486,1.340062 2.5424,3.065886 3.08337,4.101042 2.1431,4.100857 2.51169,6.821144 2.84131,20.969579 0.51157,21.956708 0.87048,29.303078 2.55561,52.309818 0.64339,8.78393 0.76523,9.81033 1.13115,9.52968 0.22553,-0.17298 1.36257,-1.13591 2.52674,-2.13987 z m -537.85066,-260.00395 c -10.15765,-1.18062 -16.8483,-9.63525 -16.8483,-21.29028 0,-2.44642 0.59916,-6.14365 1.59358,-9.83353 0.90251,-3.34883 3.10431,-7.59529 5.53246,-10.67006 3.31448,-4.19712 4.16247,-4.83087 8.32081,-6.21877 3.58486,-1.19647 5.65644,-1.50455 10.21773,-1.5195 4.12596,-0.0135 6.22321,0.32242 9.34295,1.49669 7.44194,2.80115 14.25426,12.15536 15.24933,20.93934 0.76758,6.77592 -1.99611,13.91576 -7.08844,18.31263 -3.47753,3.0026 -6.26503,4.69392 -10.49238,6.36622 -5.678,2.24621 -10.70035,3.01321 -15.82774,2.41726 z m 8.44811,-6.575 c 4.74465,-0.9792 9.62966,-3.35547 13.37275,-6.50507 3.4467,-2.90021 5.22522,-6.43676 5.44979,-10.83678 0.22381,-4.38537 -0.98761,-8.10647 -3.93771,-12.09535 -2.90353,-3.92594 -6.10919,-6.1649 -10.01874,-6.99749 -4.25997,-0.90723 -12.40482,0.0135 -15.15502,1.71326 -1.27531,0.78819 -5.2179,5.53823 -5.2179,6.28652 0,0.1837 -0.23229,0.72774 -0.51619,1.20899 -2.32064,3.9338 -3.62513,12.14962 -2.70156,17.01462 0.67327,3.5465 3.27237,7.39912 6.12817,9.08372 2.7702,1.63412 7.91187,2.09439 12.59641,1.12758 z m -16.69745,-55.16457 c -1.86936,-0.59277 -3.15762,-1.39851 -4.457,-2.78765 -1.52249,-1.62766 -2.16797,-2.99979 -2.60208,-5.53135 -0.29597,-1.72595 -0.27179,-2.11543 0.26959,-4.34209 1.10563,-4.54737 3.26888,-7.26595 7.33221,-9.21449 2.18092,-1.04585 2.39603,-1.09606 4.19973,-0.98031 5.50676,0.35341 9.1349,4.59743 9.14503,10.69743 0.009,5.40918 -3.58655,10.76249 -8.16106,12.15087 -1.50363,0.45632 -4.2995,0.46006 -5.72642,0.008 z m 4.17568,-6.07978 c 3.74576,-1.60726 4.85749,-8.30253 1.69845,-10.22871 -1.654,-1.0085 -3.32726,-0.54558 -4.81449,1.33197 -1.39086,1.7559 -1.95311,3.2413 -1.9709,5.20689 -0.0127,1.40054 0.087,1.75434 0.6997,2.48245 1.22679,1.45796 2.79653,1.88997 4.38724,1.2074 z m 496.41598,-46.96597 c -3.1473,-0.91664 -5.7867,-2.84897 -7.21087,-5.27917 -0.88535,-1.51072 -1.65267,-4.29978 -1.65267,-6.00713 0,-3.89715 2.94106,-8.85244 6.18654,-10.42356 0.65574,-0.31744 2.14172,-0.77349 3.30216,-1.01344 1.94805,-0.40281 2.23837,-0.40351 3.78508,-0.009 2.72097,0.69388 5.16765,1.67355 6.66882,2.67028 2.14291,1.42282 4.30831,3.77624 5.26587,5.72312 0.77168,1.56896 0.85246,1.96157 0.84756,4.11946 -0.005,2.14965 -0.087,2.54199 -0.83124,3.97271 -1.02113,1.963 -3.55923,4.43163 -5.43893,5.29005 -3.29287,1.50381 -7.71427,1.89111 -10.92232,0.95677 z m 7.83627,-6.33571 c 1.29286,-0.55419 3.0416,-2.32167 3.29467,-3.32997 0.51949,-2.06982 -2.78386,-5.60413 -5.82874,-6.23624 -0.80108,-0.16631 -1.52514,-0.41343 -1.60904,-0.54916 -0.23762,-0.38447 -2.11828,-0.29038 -3.25043,0.16262 -2.32,0.92828 -3.6789,4.52588 -2.69362,7.13123 0.58888,1.55715 2.14508,2.79143 4.16052,3.29987 1.42685,0.35995 4.5611,0.10698 5.92664,-0.47835 z m -27.25549,-24.43374 c -5.48762,-0.68704 -10.75127,-2.69306 -14.61784,-5.57098 -6.55926,-4.88213 -9.89885,-11.39851 -10.205,-19.91264 -0.12475,-3.4693 0.29329,-6.40057 1.30175,-9.12812 1.18922,-3.21639 4.50384,-7.35022 7.75232,-9.66828 4.48468,-3.20021 16.67703,-7.59073 25.42632,-9.15611 2.72024,-0.4867 4.32327,-0.60725 7.90959,-0.59484 5.36128,0.0185 7.26239,0.43018 11.37708,2.46338 3.96777,1.9606 7.17513,4.90408 9.68269,8.88606 3.47393,5.51655 4.64516,14.66317 2.76122,21.56354 -1.46878,5.3798 -4.69717,10.53204 -8.23603,13.14404 -4.2876,3.16463 -11.22786,6.01904 -17.83392,7.33477 -4.55816,0.90786 -11.01886,1.17744 -15.31818,0.63918 z m 14.78118,-6.81743 c 5.19274,-1.12143 11.77179,-3.88176 14.79323,-6.20671 6.78296,-5.21936 8.66409,-18.13057 3.84066,-26.36049 -1.29524,-2.20999 -4.07461,-4.95981 -6.23326,-6.16699 -4.67112,-2.61225 -8.98697,-3.01557 -17.28759,-1.61556 -5.02785,0.84801 -14.19333,3.84636 -19.18229,6.27519 -2.39969,1.16827 -3.08483,1.66111 -5.02962,3.61794 -2.71346,2.73023 -3.53418,4.28245 -4.13047,7.8119 -0.72413,4.28608 0.11248,9.29313 2.20028,13.16867 0.95739,1.77722 3.74785,4.74058 5.73407,6.08941 1.84807,1.25499 4.80658,2.63897 6.6497,3.1107 3.53486,0.90472 4.84097,1.02499 10.31875,0.95014 4.57541,-0.0625 6.04528,-0.18154 8.32654,-0.6742 z m -344.87654,220.517299 c 3.58331,-0.74972 8.5647,-3.7715 11.81582,-7.16759 2.07417,-2.16667 2.52486,-2.76042 4.50064,-5.92944 0.95263,-1.52797 2.43364,-3.88093 3.29112,-5.22883 0.85749,-1.34789 2.04997,-3.29059 2.64994,-4.31715 1.2755,-2.18242 1.90444,-2.69701 3.29623,-2.69701 1.19507,0 2.25912,0.62006 2.69113,1.56819 0.28385,0.62301 0.40145,0.6618 1.54609,0.50996 3.47832,-0.46144 18.75833,-0.67061 49.84861,-0.68249 19.220291,-0.007 35.796648,-0.12417 37.570838,-0.26485 3.163173,-0.25077 13.440807,-0.95126 16.900869,-1.15189 1.663118,-0.0964 1.874811,-0.17606 2.461577,-0.92581 0.362665,-0.46341 1.08503,-0.95303 1.660287,-1.1254 0.867992,-0.26006 1.167448,-0.2317 2.028958,0.19209 1.486032,0.73099 1.928309,1.75172 2.654379,6.126 1.208405,7.28012 2.21697,9.59445 5.633826,12.92765 3.088534,3.01294 7.742925,5.33201 13.374687,6.66406 2.479331,0.58642 3.517874,0.68847 7.011459,0.68903 4.626398,0 6.090708,-0.29062 9.431972,-1.87659 3.208682,-1.52305 6.178391,-4.84079 8.098551,-9.04774 2.34731,-5.14271 3.44731,-9.11699 4.27215,-15.435 0.46109,-3.53198 0.87971,-4.74162 1.86407,-5.3866 0.79819,-0.523 2.42808,-0.59454 3.27072,-0.14356 1.39965,0.74906 1.69257,2.06703 1.14544,5.15366 -0.1774,1.00076 -0.2826,1.85952 -0.23379,1.90833 0.0488,0.0488 2.46454,-0.25379 5.36827,-0.67246 8.95559,-1.29125 18.95276,-2.01901 31.60553,-2.30071 7.75809,-0.17275 13.92378,0.0193 31.35313,0.97639 7.84579,0.43084 17.02342,0.63362 22.132307,0.48905 l 0.96565,-0.0273 0.19177,-4.09191 c 0.20233,-4.31697 0.0872,-7.90776 -0.55811,-17.41554 -0.69154,-10.187889 -1.9612,-19.521219 -3.67128,-26.987499 -1.873457,-8.1798 -3.299907,-14.12131 -3.941307,-16.4166 -0.36407,-1.30284 -1.55231,-5.88116 -2.64054,-10.17402 -2.4252,-9.56694 -6.26589,-21.87544 -8.91638,-28.575 -4.72567,-11.94498 -9.35993,-20.28331 -16.71524,-30.07551 -5.66806,-7.54591 -13.99476,-16.63081 -20.66184,-22.54321 -11.2504,-9.9769 -29.42309,-20.93918 -44.5017,-26.84468 -19.984877,-7.82703 -39.837993,-12.5109 -61.515623,-14.51312 -4.658731,-0.4303 -22.174624,-0.42867 -27.384375,0.003 -25.115675,2.07888 -49.263225,8.49757 -65.075195,17.29774 -4.27683,2.38028 -8.00727,4.82354 -7.5107,4.91916 0.23392,0.0451 3.02882,-0.33462 6.21083,-0.84371 10.39084,-1.66245 16.359,-2.40629 21.67919,-2.702 2.62297,-0.14579 3.43196,-0.0984 4.52683,0.26528 2.62779,0.87281 4.29475,2.93803 5.27016,6.5293 1.10839,4.08082 0.0519,15.77176 -1.74329,19.29058 -1.64745,3.22925 -5.25724,5.05919 -12.30574,6.23824 -5.80761,0.97148 -20.96492,0.68954 -29.78113,-0.55396 -2.61453,-0.36877 -6.90555,-0.83851 -9.53558,-1.04386 -4.32285,-0.33753 -4.94311,-0.44882 -6.46121,-1.15922 -1.78408,-0.83487 -3.20183,-2.38255 -3.48723,-3.80682 -0.0802,-0.40018 -0.24096,-0.7276 -0.3573,-0.7276 -0.62373,0 -8.16808,8.77647 -12.23028,14.22768 -9.46034,12.69518 -14.86906,22.44739 -19.84336,35.77857 -4.46886,11.97658 -7.49922,22.99658 -10.36787,37.70313 -0.82317,4.2201 -1.73045,8.80401 -2.01617,10.18645 -6.34175,30.683509 -7.123,35.823599 -7.123,46.864559 0,4.67937 0.005,4.72011 0.59531,4.84743 0.32742,0.0706 1.54782,0.30506 2.71198,0.52096 1.16417,0.21588 4.03437,0.81206 6.37824,1.32482 3.83177,0.83831 9.89734,1.80295 10.10821,1.60761 0.0453,-0.0419 -0.0623,-0.77642 -0.23907,-1.63219 -0.2812,-1.36141 -0.26414,-1.67661 0.13657,-2.52102 0.47993,-1.01137 1.72517,-1.80055 2.83832,-1.79877 0.7637,0 2.22031,0.86026 2.554,1.50622 0.1356,0.26244 0.39219,1.13202 0.57025,1.93238 0.51951,2.33529 2.16205,7.72351 2.66161,8.73125 0.25249,0.50932 0.96671,2.41432 1.58718,4.23333 2.34982,6.88888 4.09956,10.34283 6.63054,13.08862 3.55018,3.85149 10.00689,5.70214 15.72207,4.50633 z M 78.759003,-116.15922 c -2.33691,-0.91625 -4.11914,-2.62937 -5.42923,-5.21861 -0.96448,-1.90622 -1.43187,-3.60786 -2.10378,-7.65908 -1.34128,-8.08749 -3.9185,-14.45297 -9.26613,-22.88646 -4.73638,-7.4695 -5.65179,-10.94473 -3.83095,-14.54356 1.4052,-2.77733 3.92872,-4.66265 6.85527,-5.12159 1.77131,-0.27776 4.87945,0.28961 7.53658,1.37575 0.93459,0.38203 1.79602,0.69461 1.91426,0.69461 0.33033,0 2.88163,1.59697 3.99494,2.5006 1.79274,1.45511 5.67389,7.68377 8.3049,13.3281 1.54615,3.31703 3.61842,9.52188 4.30112,12.87859 1.8559,9.12503 0.14076,18.04112 -4.33107,22.51504 -2.1495,2.15053 -5.5668,3.06943 -7.94591,2.13661 z m 3.78571,-6.61868 c 0.92628,-0.84839 2.14622,-3.63376 2.57651,-5.88272 1.48492,-7.76097 -0.8831,-17.43689 -6.80892,-27.82176 -2.44168,-4.27902 -5.06783,-7.72517 -6.6463,-8.72164 -0.74393,-0.46961 -1.57838,-0.71919 -2.70759,-0.80984 -1.95522,-0.15695 -3.27139,0.22643 -4.50961,1.31363 -1.64111,1.44089 -1.21214,3.1823 2.08351,8.45802 3.23384,5.17678 4.22614,6.91136 5.63134,9.84384 2.5799,5.38398 4.12261,10.32939 5.27931,16.92373 1.13348,6.46187 2.86978,8.74096 5.10175,6.69674 z m -31.25475,-52.02325 c -3.84765,-1.22944 -7.80302,-5.01811 -13.37165,-12.80809 -6.32772,-8.85183 -12.06227,-15.06338 -19.08704,-20.6747 -6.09857,-4.87146 -7.71324,-6.58222 -9.1403,-9.68429 -0.65262,-1.41861 -0.77718,-2.02677 -0.77938,-3.80514 -0.003,-1.83052 0.0948,-2.28242 0.71821,-3.34281 1.08551,-1.8465 3.17236,-3.59343 4.88871,-4.09238 2.8221,-0.82041 8.47979,0.13648 12.64674,2.13897 5.37332,2.58223 12.06259,7.60353 17.35196,13.02522 5.72698,5.87029 8.70473,9.90803 11.99708,16.26772 4.49246,8.67793 5.69531,14.86373 3.73422,19.20363 -0.89543,1.98157 -1.96165,2.98564 -3.96735,3.73607 -1.80287,0.67453 -2.96608,0.68289 -4.9912,0.0358 z m 3.53441,-6.78637 c 1.19247,-3.61322 -2.85803,-13.43236 -8.87746,-21.52056 -2.43943,-3.27781 -8.00285,-9.03571 -11.17111,-11.5616 -2.55468,-2.03674 -7.02961,-5.11289 -9.06576,-6.23201 -2.30722,-1.26811 -6.35603,-2.85605 -7.2821,-2.85605 -1.15787,0 -2.47801,0.53913 -3.14023,1.28246 -0.47853,0.53711 -0.48094,0.61292 -0.0551,1.72782 0.79573,2.08367 1.22422,2.50835 8.88997,8.81112 6.42337,5.28128 12.76006,12.19776 18.25808,19.9286 5.58911,7.85891 9.07618,11.32922 11.42087,11.36599 0.58176,0.009 0.76308,-0.15853 1.02288,-0.94577 z m -174.502873,5.73606 c -2.63223,-0.26049 -3.85125,-0.59653 -4.91712,-1.35552 -3.10314,-2.20964 -0.61526,-6.92322 2.83919,-5.37922 0.77909,0.34823 2.01044,0.48329 5.22028,0.57262 4.66096,0.12972 7.81225,-0.17608 11.82336,-1.14731 2.83263,-0.68589 3.50978,-0.61849 4.66587,0.46441 1.131625,1.05999 1.095774,3.09444 -0.0752,4.26541 -0.64707,0.64706 -4.1207,1.63012 -8.1793,2.31478 -2.17009,0.36611 -8.7955,0.52031 -11.37709,0.26483 z m 74.46624,-12.83975 c -3.032231,-0.61349 -5.499338,-2.56473 -6.829425,-5.40145 -0.599969,-1.27954 -0.69723,-1.83758 -0.69723,-4.0005 0,-2.17114 0.09623,-2.71886 0.70649,-4.02074 0.388567,-0.82896 1.258147,-2.05885 1.932384,-2.7331 0.674238,-0.67424 1.904127,-1.54382 2.733093,-1.93238 1.318446,-0.61802 1.838537,-0.70649 4.153033,-0.70649 2.507191,0 2.732749,0.0471 4.304321,0.89935 5.894546,3.1964 6.940629,11.11736 2.057611,15.58017 -2.290471,2.09335 -5.315717,2.93111 -8.360277,2.31514 z m -116.59928,-0.42276 c -1.81949,-0.71892 -4.10014,-2.8267 -4.95983,-4.58381 -2.38463,-4.87404 -0.35166,-10.73045 4.56999,-13.16477 1.054,-0.52132 1.65896,-0.61769 3.89372,-0.62027 2.36976,-0.003 2.80426,0.0748 4.16438,0.74265 1.93548,0.95043 3.66636,2.68171 4.6142,4.61529 0.65672,1.33975 0.74432,1.81359 0.7453,4.03172 0,2.16859 -0.0942,2.71325 -0.69352,3.96875 -0.98338,2.0601 -2.3109,3.46884 -4.24619,4.50598 -1.51427,0.81152 -1.91326,0.90439 -4.1873,0.97479 -2.04698,0.0634 -2.77103,-0.024 -3.90075,-0.47033 z m 133.546583,-32.00888 c -1.67349,-0.10121 -6.614583,-0.20205 -10.980208,-0.22407 -9.380009,-0.0473 -20.357465,-0.43006 -23.610597,-0.82319 -7.624286,-0.92138 -12.673462,-3.54412 -14.084776,-7.31622 -0.291571,-0.77929 -0.893551,-3.61891 -1.337733,-6.31026 -0.444156,-2.69135 -1.120008,-6.41166 -1.501881,-8.26736 -0.823622,-4.0025 -0.869553,-5.05167 -0.2617,-5.97935 1.053545,-1.60792 0.749591,-1.57207 12.691587,-1.49693 17.038505,0.1072 18.497126,0.10082 28.925784,-0.12655 10.754863,-0.23447 13.86721,-0.0529 18.299854,1.06736 1.348475,0.34082 3.057657,0.94944 3.798199,1.35249 1.675977,0.91217 3.305334,2.73056 3.728561,4.16106 0.706226,2.3872 0.02249,10.64946 -1.283176,15.50729 -0.87749,3.26459 -1.775672,5.12959 -3.207835,6.66069 -1.951064,2.08584 -3.159389,2.27991 -11.176079,1.79504 z"
         id="path1048"
         sodipodi:nodetypes="ssssssssssscsssscssssscsscsscssssccssscssscssscccssssccscsssscscccscsccscsscssssssssssccsssscssssssssssssssssssssssssssssscssscccsssscscssssssccscsssssssssscsscsssssssscscssssssssccsscscssssssssscscccssccsccccssscsssssssccscsscccssssssssssscsscssssssssssscsccscccsscsssssssssssssssscssssssssssscsssssssscsssscsssccssssscscccsssssssssccsssssccssccscssscssssscsssssssssssscsscscssssssscsssscssssscsscssscccsssssssssscsscssssccccsssssccccccsscsssssssssssscsssssssssssssssscscssscsssssccssssssssssscsssssssscssssssscscsssscssscsssssssccsssssssssssssssssssssscsssssssccsssssscsssscsscssccsssssssssssssssssssssssssssssssssscssssssscccscsscsccccscssscsccsccssssssscsssssssssssssssscsssscsscsssssccsscssssssssssssssscssssssssccssssssscssssscsscccscssssssssssssssscssccsccscssscsssssssssssscss" />
    </g>
  </g>
</svg>
